<svg id="Calque_1" data-name="Calque 1" xmlns="http://www.w3.org/2000/svg" viewBox="0 0 117.39 78.9"><defs><style>.cls-1{fill:#fff;}</style></defs><path class="cls-1" d="M143.65,69.13h-6.58l-8.24-17.89a13.45,13.45,0,0,0-12.22-7.82H62a13.45,13.45,0,0,0-12.22,7.82L41.51,69.13H34.93a4.34,4.34,0,1,0,0,8.68h4.13a25.56,25.56,0,0,0-.59,4.94v21.62a5.1,5.1,0,0,0,5.1,5.09h3.74v8.3a4.56,4.56,0,0,0,4.56,4.55h3.74a4.55,4.55,0,0,0,4.55-4.55v-8.3h58.26v8.3a4.55,4.55,0,0,0,4.55,4.55h3.74a4.56,4.56,0,0,0,4.56-4.55v-8.3H135a5.09,5.09,0,0,0,5.1-5.09V82.75a25.56,25.56,0,0,0-.59-4.94h4.13a4.34,4.34,0,0,0,0-8.68ZM62,87a4,4,0,0,1-3.76,2.63H52.73a1.48,1.48,0,0,1-1.47-1.48V85a1.47,1.47,0,0,1,1.47-1.47H63.27Zm65.32,1.15a1.48,1.48,0,0,1-1.48,1.48h-5.52A4,4,0,0,1,116.57,87l-1.26-3.46h10.54A1.47,1.47,0,0,1,127.33,85ZM49.14,75.89l7-18.3a14,14,0,0,1,12.69-8.12h40.89a14,14,0,0,1,12.68,8.12l7,18.3Z" transform="translate(-30.59 -43.42)"/></svg>