<?xml version="1.0" encoding="UTF-8"?>
<svg id="Layer_2" data-name="Layer 2" xmlns="http://www.w3.org/2000/svg" viewBox="0 0 605.42 134.86"><metadata><?xpacket begin="" id="W5M0MpCehiHzreSzNTczkc9d"?><x:xmpmeta xmlns:x="adobe:ns:meta/" x:xmptk="XMP Core 6.0.0"><rdf:RDF xmlns:rdf="http://www.w3.org/1999/02/22-rdf-syntax-ns#"><rdf:Description rdf:about="" xmlns:xmp="http://ns.adobe.com/xap/1.0/" xmlns:xmpMM="http://ns.adobe.com/xap/1.0/mm/" xmlns:dc="http://purl.org/dc/elements/1.1/" xmlns:dcterms="http://purl.org/dc/terms/" xmpMM:DocumentID="xmp.did:cb9f5498-bb58-4572-8043-8c369e6bfb9b" xmpMM:InstanceID="xmp.iid:cb9f5498-bb58-4572-8043-8c369e6bfb9b" dcterms:provenance="https://cai-manifests.adobe.com/manifests/urn-c2pa-d880abe2-932a-4672-a7c9-73a4b90863c5-adobe"> </rdf:Description></rdf:RDF></x:xmpmeta>
<?xpacket end="w"?></metadata>
  <defs>
    <style>
      .cls-1 {
        fill: #171818;
      }

      .cls-2 {
        fill: #cd2d28;
      }

      .cls-3 {
        fill: #2b0908;
      }

      .cls-4 {
        fill: #d0d2d4;
      }

      .cls-5 {
        fill: #f7e9e9;
      }

      .cls-6 {
        fill: #323232;
      }

      .cls-7 {
        fill: #d19898;
      }

      .cls-8 {
        fill: #921611;
      }

      .cls-9 {
        fill: #fefdfd;
      }

      .cls-10 {
        fill: #210707;
      }

      .cls-11 {
        fill: #cd9a98;
      }

      .cls-12 {
        fill: #bfc2c3;
      }

      .cls-13 {
        fill: #cfd3d4;
      }

      .cls-14 {
        fill: #181919;
      }

      .cls-15 {
        fill: #a7a7a5;
      }

      .cls-16 {
        fill: #b3b7b8;
      }

      .cls-17 {
        fill: #232323;
      }

      .cls-18 {
        fill: #cc9998;
      }

      .cls-19 {
        fill: #afb0b0;
      }

      .cls-20 {
        fill: #4c4b4c;
      }

      .cls-21 {
        fill: #ca9793;
      }

      .cls-22 {
        fill: #d33328;
      }

      .cls-23 {
        fill: #c99997;
      }

      .cls-24 {
        fill: #4e4f50;
      }

      .cls-25 {
        fill: #515051;
      }

      .cls-26 {
        fill: #7a0a07;
      }

      .cls-27 {
        fill: #4c4d4d;
      }

      .cls-28 {
        fill: #4d4c4c;
      }

      .cls-29 {
        fill: #ced2d5;
      }

      .cls-30 {
        fill: #b5b9ba;
      }

      .cls-31 {
        fill: #4d4c4d;
      }

      .cls-32 {
        fill: #a4352f;
      }

      .cls-33 {
        fill: #151615;
      }

      .cls-34 {
        fill: #cb9896;
      }

      .cls-35 {
        fill: #cd2e28;
      }

      .cls-36 {
        fill: #9c9e9f;
      }

      .cls-37 {
        fill: #4c4c4b;
      }

      .cls-38 {
        fill: #b78d89;
      }

      .cls-39 {
        fill: #cd908f;
      }

      .cls-40 {
        fill: #d9abaa;
      }

      .cls-41 {
        fill: #bab9ba;
      }

      .cls-42 {
        fill: #828385;
      }

      .cls-43 {
        fill: #d09694;
      }

      .cls-44 {
        fill: #cd9e9c;
      }

      .cls-45 {
        fill: #be9292;
      }

      .cls-46 {
        fill: #a9443e;
      }

      .cls-47 {
        fill: #feecea;
      }

      .cls-48 {
        fill: #3e0807;
      }

      .cls-49 {
        fill: #cb9594;
      }

      .cls-50 {
        fill: #fdf2f0;
      }

      .cls-51 {
        fill: #c69392;
      }

      .cls-52 {
        fill: #ababaa;
      }

      .cls-53 {
        fill: #fdfafa;
      }

      .cls-54 {
        fill: #fbd8d7;
      }

      .cls-55 {
        fill: #a43934;
      }

      .cls-56 {
        fill: #cfd2d4;
      }

      .cls-57 {
        fill: #fdfaf9;
      }

      .cls-58 {
        fill: #898d8d;
      }

      .cls-59 {
        fill: #7d7e7e;
      }

      .cls-60 {
        fill: #c39797;
      }

      .cls-61 {
        fill: #ced0d2;
      }

      .cls-62 {
        fill: #8e9090;
      }

      .cls-63 {
        fill: #ca9696;
      }

      .cls-64 {
        fill: #ececed;
      }

      .cls-65 {
        fill: #d5d4d4;
      }

      .cls-66 {
        fill: #c99999;
      }

      .cls-67 {
        fill: #65686b;
      }

      .cls-68 {
        fill: #c38b8a;
      }

      .cls-69 {
        fill: #4d4d4d;
      }

      .cls-70 {
        fill: #7c7c7f;
      }

      .cls-71 {
        fill: #4d4d4c;
      }

      .cls-72 {
        fill: #fef8f7;
      }

      .cls-73 {
        fill: #c7908f;
      }

      .cls-74 {
        fill: #c78f8d;
      }

      .cls-75 {
        fill: #fdfbfb;
      }

      .cls-76 {
        fill: #201212;
      }

      .cls-77 {
        fill: #c3b3b3;
      }

      .cls-78 {
        fill: #b6babc;
      }

      .cls-79 {
        fill: #848586;
      }

      .cls-80 {
        fill: #cd2f28;
      }

      .cls-81 {
        fill: #7c7d7d;
      }

      .cls-82 {
        fill: #484747;
      }

      .cls-83 {
        fill: #8b8e8e;
      }

      .cls-84 {
        fill: #cc9796;
      }

      .cls-85 {
        fill: #5d120f;
      }

      .cls-86 {
        fill: #8b1514;
      }

      .cls-87 {
        fill: #1f2120;
      }

      .cls-88 {
        fill: #8d9091;
      }

      .cls-89 {
        fill: #4f4e4e;
      }

      .cls-90 {
        fill: #010201;
      }

      .cls-91 {
        fill: #424445;
      }

      .cls-92 {
        fill: #d1a29f;
      }

      .cls-93 {
        fill: #919193;
      }

      .cls-94 {
        fill: #cf9997;
      }

      .cls-95 {
        fill: #7b7d7e;
      }

      .cls-96 {
        fill: #510402;
      }

      .cls-97 {
        fill: #ca9a98;
      }

      .cls-98 {
        fill: #fbe5e3;
      }

      .cls-99 {
        fill: #727373;
      }

      .cls-100 {
        fill: #ced2d3;
      }

      .cls-101 {
        fill: #b9bbbc;
      }

      .cls-102 {
        fill: #1e1e1f;
      }

      .cls-103 {
        fill: #cd312a;
      }

      .cls-104 {
        fill: #cb9696;
      }

      .cls-105 {
        fill: #353636;
      }

      .cls-106 {
        fill: #d12e28;
      }

      .cls-107 {
        fill: #cd332c;
      }

      .cls-108 {
        fill: #7c7e80;
      }

      .cls-109 {
        fill: #868a8b;
      }

      .cls-110 {
        fill: #fbd7d5;
      }

      .cls-111 {
        fill: #6f6768;
      }

      .cls-112 {
        fill: #ca9897;
      }

      .cls-113 {
        fill: #888a8b;
      }

      .cls-114 {
        fill: #881413;
      }

      .cls-115 {
        fill: #cf9b9a;
      }

      .cls-116 {
        fill: #fceeee;
      }

      .cls-117 {
        fill: #cf2f29;
      }

      .cls-118 {
        fill: #c6332f;
      }

      .cls-119 {
        fill: #d03028;
      }

      .cls-120 {
        fill: #8a1413;
      }

      .cls-121 {
        fill: #919495;
      }

      .cls-122 {
        fill: #484748;
      }

      .cls-123 {
        fill: #cdd1d2;
      }

      .cls-124 {
        fill: #4a4b4b;
      }

      .cls-125 {
        fill: #ca9290;
      }

      .cls-126 {
        fill: #474948;
      }

      .cls-127 {
        fill: #cc2d28;
      }

      .cls-128 {
        fill: #c21f20;
      }

      .cls-129 {
        fill: #ba918f;
      }

      .cls-130 {
        fill: #d09b9a;
      }

      .cls-131 {
        fill: #ca2d29;
      }

      .cls-132 {
        fill: #ce2e27;
      }

      .cls-133 {
        fill: #fbefef;
      }

      .cls-134 {
        fill: #040505;
      }

      .cls-135 {
        fill: #4a4949;
      }

      .cls-136 {
        fill: #ce9795;
      }

      .cls-137 {
        fill: #888c8d;
      }

      .cls-138 {
        fill: #b8bcbd;
      }

      .cls-139 {
        fill: #ca9796;
      }

      .cls-140 {
        fill: #4a4a49;
      }

      .cls-141 {
        fill: #fde8e7;
      }

      .cls-142 {
        fill: #fefefe;
      }

      .cls-143 {
        fill: #4a4a4a;
      }

      .cls-144 {
        fill: #d09797;
      }

      .cls-145 {
        fill: #bab8b9;
      }

      .cls-146 {
        fill: #4e4d4d;
      }

      .cls-147 {
        fill: #fefaf9;
      }

      .cls-148 {
        fill: #959698;
      }

      .cls-149 {
        fill: #d19896;
      }

      .cls-150 {
        fill: #d22e28;
      }

      .cls-151 {
        fill: #d29e9b;
      }

      .cls-152 {
        fill: #4b4b4a;
      }

      .cls-153 {
        fill: #cf3128;
      }

      .cls-154 {
        fill: #ccd0d1;
      }

      .cls-155 {
        fill: #bdc0c2;
      }

      .cls-156 {
        fill: #fdf5f5;
      }

      .cls-157 {
        fill: #cb2d28;
      }

      .cls-158 {
        fill: #9e9fa0;
      }

      .cls-159 {
        fill: #c99a98;
      }

      .cls-160 {
        fill: #ca9695;
      }

      .cls-161 {
        fill: #8c1415;
      }

      .cls-162 {
        fill: #540805;
      }

      .cls-163 {
        fill: #821815;
      }

      .cls-164 {
        fill: #4c4d4e;
      }

      .cls-165 {
        fill: #fdf8f9;
      }

      .cls-166 {
        fill: #400807;
      }

      .cls-167 {
        fill: #898d8e;
      }

      .cls-168 {
        fill: #d13028;
      }

      .cls-169 {
        fill: #cd2e27;
      }

      .cls-170 {
        fill: #5e282a;
      }

      .cls-171 {
        fill: #fbfbfb;
      }

      .cls-172 {
        fill: #1f0707;
      }

      .cls-173 {
        fill: #4c4b4b;
      }

      .cls-174 {
        fill: #cf3029;
      }

      .cls-175 {
        fill: #494949;
      }

      .cls-176 {
        fill: #494948;
      }

      .cls-177 {
        fill: #131414;
      }

      .cls-178 {
        fill: #fefcfc;
      }

      .cls-179 {
        fill: #cea3a1;
      }

      .cls-180 {
        fill: #6a6a6a;
      }

      .cls-181 {
        fill: #4b4a4a;
      }

      .cls-182 {
        fill: #c09391;
      }

      .cls-183 {
        fill: #fdf6f5;
      }

      .cls-184 {
        fill: #191919;
      }

      .cls-185 {
        fill: #343535;
      }

      .cls-186 {
        fill: #da9f9e;
      }

      .cls-187 {
        fill: #520c0a;
      }

      .cls-188 {
        fill: #fcd2d0;
      }

      .cls-189 {
        fill: #ced2d4;
      }

      .cls-190 {
        fill: #ad4441;
      }

      .cls-191 {
        fill: #ca8f8e;
      }

      .cls-192 {
        fill: #ce3029;
      }

      .cls-193 {
        fill: #4b4b4b;
      }

      .cls-194 {
        fill: #b69592;
      }

      .cls-195 {
        fill: #9e9595;
      }

      .cls-196 {
        fill: #4c4c4d;
      }

      .cls-197 {
        fill: #808185;
      }

      .cls-198 {
        fill: #4d4e4f;
      }

      .cls-199 {
        fill: #85898a;
      }

      .cls-200 {
        fill: #d12f28;
      }

      .cls-201 {
        fill: #595050;
      }

      .cls-202 {
        fill: #d09e9d;
      }

      .cls-203 {
        fill: #d5abab;
      }
    </style>
  </defs>
  <g id="Layer_1-2" data-name="Layer 1">
    <g>
      <path class="cls-17" d="M140.01,61.7l-.34-.34c-.39-.12-.53-.45-.4-.98l-.31.03-4.32,5.53-.75-.03c.05-.1-.12-.36-.26-.36l4.43-5.8c.37-.49,1.92-.39,2.35-.05.5.57-.27,1.48-.41,2Z"/>
      <path class="cls-170" d="M281.84,66.48l-3.03.02c.15-.79.69-1.16,1.44-1.19.7-.03,1.36.16,1.6,1.17Z"/>
      <path class="cls-161" d="M12.2,103.19c.02-.91.86-.61.35.21,18-.08,35.93-.09,53.79-.03l-.04.79c.62-.16,1.04,1.25.47,1.51l-.22.62c-1.38.08-.91.92.16,1.25l14.26-.03c.5-.83.38-1.22-.36-1.19l-.31-.78c-.61-.04-.21-1.15.31-1.18-.02-1.34.15-1.7.5-1.08,94.45-.09,188.83,0,283.15.24l-.09.39c-12.29,1.02-24.61,1.9-36.95,2.66l-.2-.4c-1.46-.25-2.99-.23-4.61.05l-4-.33c-22.43-.14-44.85-.08-67.26.18-.92-.06-1.71.1-2.37.47-.18-.13-.35-.23-.51-.21-6.09.72-12.46,2.03-16.9,6.47l-.37-.04H81.62c-.71.27-1.01.25-1.68,0H13.42c-.09.82-.37.78-.61.02l-.02.4c-1.28.09-11.29.58-11.68.14-.14-.16-.26-.35-.35-.54l-.33-1.49c.1-2.66,1.43-4.87,3.21-6.73l1.56-1.64c2.15-.29,4.34-.4,6.56-.33l.44.6Z"/>
      <path class="cls-75" d="M11.9,101.57c.76.16.95,1.19.3,1.62l-5.45.09c-.62.01-1.18.01-1.55-.36.64-.67,1.43-1.15,2.16-1.7,1.49.21,3.2-.17,4.54.34Z"/>
      <path class="cls-76" d="M109.98,66.21c.43.32.13.44-.31.6l-.27.61-13.9.13c-15.66.06-31.86,2.07-46.57,8.39-2.14,1.35-4.18,2.81-6.14,4.38l-1.28.41c.66.77-.52,1.13-1.19.87-1.49,1.75-3.1,3.43-4.82,5.04.18.55-.21.83-1.17.84l-.08.7c-6.9,2.8-13.75,5.99-20.55,9.56l-4.69,3.03-1.65.46c.26.99-1.25,1.87-2.16,1.7.22.13.33.31.31.55-2.29,2.3-5.13,5.33-4.24,8.82l-.51.49.71.32c1.64,4.15,6.23,6.19,10.13,7.78l.3.76c.43-.76.58-.46.61.3l1.08-.05c11.04,3.4,22.81,4.88,33.96,5.52l.36.63v.57c-.85,0-1.72-.27-2.7-.3-1.22-.03-2.29-.08-3.49-.19-8.17-.76-16.16-1.78-24.09-4.04-5.85-1.67-13.41-4.18-16.55-9.19-1.89-3.01-1.19-6.78,1-9.42,5.01-6.07,13.69-10.24,20.94-13.61.67-1.36,1.81-2.27,3.5-1.58l7.57-3.39,6.21-5.88c1.93-1.82,3.89-3.41,6.22-4.68,10.46-5.71,24.53-8.73,36.32-9.38l4.9-.27,11.55-.34c.84-.02,5.26-1.68,8.34-.76.78.23,1.75.09,2.36.65Z"/>
      <path class="cls-195" d="M40.45,81.93l.24.61-3.85,3.9c-.06.21,0,.5.17.88l.02.37c-.91-.06-1.84.05-2.7-.22l5.99-5.88.12.33Z"/>
      <path class="cls-64" d="M109.42,66.41h-8.56c2.83-.66,5.74-.81,8.56,0Z"/>
      <path class="cls-171" d="M139.67,61.37l-1.38,5.19-4.69-.04c.02-.32.23-.47.3-.6l4.62-5.88c.33-.42,1.47-.3,1.47.22,0,.37-.21.75-.31,1.12Z"/>
      <path class="cls-150" d="M64.59,86.15l1.79.04.31.09.02,14.76c.04-.46.14-.36.32.31.27.07.26.17,0,.29-.51.62-.37.91.08,1.49l.21-.61h11.85c.14-.62.42-1.01.85-1.17.38-.94.69-.66.86.28.36.18.57.48.65.9l286.28.02.38.61c.21.45-.31.81-.61.29-.04.68-2.33.55-3.09.46-.08-.01-.14-.17-.2-.37l-283.21-.09-.44.93c-.22-.32-.41-.64-.59-.97l-.2.61c-4.21-.05-8.41-.01-12.59.12-.28.1-.59.11-.93.03-.16-.31-.29-.57-.47-.71-.23-.17-.62,0-.99,0l-52.28-.05.21-.61,52.66-.26.09-.52-52.58-.07c-.49.19-.77.17-1.03-.38l-.53.47c-1.2-.15-2.42-.2-3.65-.16l-.37-.65c4.94-3.71,10.44-6.6,16.23-9.1l10.75-4.64c.85-.47,1.75-.4,2.7.22,1.22-.3,2.53-.42,3.93-.38,2.71,1.44,5.43,2.77,8.17,4.01l9.35-3.82.52-1.6c1.88.05,3.74.13,5.58.24Z"/>
      <path class="cls-53" d="M12.56,103.4c.07-.32-.25-.32-.35-.21-.26-.48-.34-1.02-.3-1.62l.97-.22,53.17.02c.11.6.1,1.11-.04,1.77l-53.45.26Z"/>
      <path class="cls-75" d="M376.96,101.62l.91,1.22c-.13.13-.28.31-.59.31l-6.39.03c-.86,0-2.04.73-2.71-.03l-287.14-.02c-.37-.29-.24-1.18-.16-1.5h296.09Z"/>
      <path class="cls-38" d="M26.36,94.16c-.57.72-1.77.55-1.9.3-.08-.15-.06-.53.24-.6l1.47-.36c.28-.07.37.42.19.66Z"/>
      <path class="cls-57" d="M80.01,101.36l-.07,1.78h-12.83c-.57-.16-.62-1.3-.08-1.5v-.29s.03-.4.03-.4c4.12-.24,8.32-.3,12.6-.2l.35.61Z"/>
      <path class="cls-50" d="M67.01,86.18l.61.28c0,4.84.02,9.69.03,14.53l-.6.36s-.48,0-.63-.12v-15.05c.17,0,.41,0,.61-.01Z"/>
      <path class="cls-161" d="M67.03,101.64c.01.48-.02.97.08,1.49-.63,0-.75,0-.76-.76,0-.49-.01-.87.68-.73Z"/>
      <path class="cls-101" d="M64.59,86.15c-1.57-.03-3.14.22-5.03-.14-.24.48-.25,1.03-.33,1.86l-9.6,3.97c-1.72.71-5.26-2.75-8.85-3.94-1.24-.41-2.59-.11-3.75-.2-.53-.08-.54-.21-.02-.37l.19-.67,3.09-.21,2.62-3.68c-1.28.12-2.1-.16-2.47-.83-.41.28-.45.17-.12-.33l1.19-.87,3.46.12,3.38-4.22c1.33-1.05,3.37-.65,5.07-.69l-1.56,5.07,6.16.2c.81.03,1.3.53,1.32,1.35l.05,3.31h4.59c.3,0,.51.13.6.28Z"/>
      <path class="cls-24" d="M51.04,89.75c-.32.13-.6-.02-.69-.08-.15-.1-.35-.41-.27-.73l1.53-6.41c1.96-.23,3.9-.24,5.9.16.43,1.4.53,2.84.29,4.29l-6.75,2.78Z"/>
      <path class="cls-198" d="M48.22,88.9c-.41,1.45-3.62-.52-6.03-2.06.93-1.48,1.68-3.37,3.17-4.43.72-.51,4.94-.76,4.43,1.03l-1.56,5.47Z"/>
      <path class="cls-124" d="M37.01,87.33c-.37-.09-.99-.24-1.37-.52l4.81-4.87,3.67.33c-1.26,1.56-2.01,3.53-3.55,4.71-1.08.28-2.56.04-3.55.35Z"/>
      <path class="cls-164" d="M50.63,80.66c-1.56.35-2.96.33-4.57.05,1.92-2.85,2.37-4.42,5.94-3.94l-1.37,3.89Z"/>
      <path class="cls-142" d="M109.68,66.81h165.87s158.15.01,158.15.01l5.9.3c1.03.11,2.04.22,3.03.31l6.33.25,4.56.26,4.28.36c27.73,2.33,55.15,6.57,82.2,13.38l5.84,1.47c1.44.36,1.98,1.67,1.82,2.96l-.48.61c-27.08.02-54.24.04-81.46.06l-5.23-.6c-.27.59-1.9.21-2.4-.16-1,.17-1.97.08-2.92-.28-17.51-2.92-37.35-4.66-54.86-5.14-6.04-.17-12.16-.33-18.12.68-.15.52-.35.52-.59.02-1.9.14-2.72.78-3.43,2.47.16.71.16,1.85-.23,2.4l-.29.61c-27.86.05-55.72.1-83.59.15l-.38-.6c-.52-1.36-1.27-2.19-2.24-2.47-1.96-.31-3.75-.17-5.37.42-.34.57-.71.89-1.09.96l-.21.59s-2.88,0-8.65,0l-.42-.08c-.31-2.83-6.96-2.64-7.91-.59l-.42.14-.31.68c-62.09.18-124.17.16-186.25-.07l-.17-9.28h-.4c-.41-.85-1.14-1.15-2.03-1.31-1.12-.21-8.28-.19-9.43.02s-1.78.64-2.09,1.85l-.02,8.83-.31.2c.09.91-1.65.83-1.79-.04-.14-.07-.3-.11-.46-.13-.94-.12-3.61-.17-4.55-.08-.17.02-.34.14-.5.3-.21-1.43-.4-2.86-.57-4.28-2.05-.21-4.13-.32-6.23-.33-.71,0-.82-.42-.91-1.05l1.24-4.03c-1.35-.22-2.6-.07-3.75.46l-3.61,4.33c-.38.22-3.77.29-3.73-.61,4.6-4.88,13.81-8.07,20.69-9.96,7.8-2.15,15.63-2.94,23.66-3.55l8.57-.25c1.81-.05,3.44-.04,5.26-.06l9.98-.1Z"/>
      <path class="cls-90" d="M444.14,65.9c.27-.02.39,0,.3.28-.02.2-.05.36-.09.37-1.97.24-5.7.07-1.39.02l.28.22c-.09.28-.35.33-.6.33-.83.27-2.11.24-3.03,0l-.29.59-5.63-.29h-157.75s-.38-.61-.38-.61c-.26-.08-.26-.18,0-.3h3.26c.65-.84,2.38-.87,3.03-.03l152.84.03,9.46-.6Z"/>
      <path class="cls-90" d="M140.01,61.7l-1.29,4.81h136.83s0,.31,0,.31l-.29.61H110.06s-.38-.61-.38-.61c-.03-.24.07-.49.31-.6.16.15.54.31.92.31l21.74-.02c.58,0,.81-.69,1.01-.95.54-.33.57-.16.26.36l3.94-.02,1.14-4.27.69-.26c.43-.38.43-.21.34.34Z"/>
      <path class="cls-102" d="M458.1,86.02l-.03.43c-.63.68-.88,1.71-.78,3.06-1.09,1.13-.93-1.95-.87-2.78l-.19-.57c-.06.23-.18.57-.35.56-1.34-.06-4.33-.5-5.64-.82l-.34-.66c-.09.64-.39.57-.92-.23l-.35.57c-17.96-2.32-36.14-3.83-54.32-4.22l-.42-.61c-.15.79-.36.78-.61,0l-.33.61c-3.54-.17-6.94.12-10.22.86.24,1.28.03,2.11-.61,2.47-.41.25-.55.03-.42-.65-.43-.34-.62-.95-.59-1.82-.79.08-1.36.4-1.68.96,0,.98-.33,1.38-1,1.2-.13-.13-.21-.34-.26-.61.11-1.11.78-2.3,2.06-2.47l6.07-.8,4.26-.27,8.04.09,7.25.29,4.41.19,4.82.34,4.25.3,3.63.31,3.63.3,3.88.33c9.35.8,18.55,1.88,27.63,3.66Z"/>
      <path class="cls-32" d="M80.66,76.61l-.04,9.3c0,.33-.47.39-.63.28l-.61-.27-.03-8.64c-.16-.75-.82-.93-1.5-1.03-1.17-.18-7.72-.21-8.82,0-.88.16-1.2.38-1.38,1.28l-.05,8.22-.61.44c-.17.59-.44.59-.62.01l-.08-8.8c-.01-1.37,1.19-2.41,2.49-2.42l9.46-.05c.88,0,2.37.69,2.42,1.69Z"/>
      <path class="cls-55" d="M276.14,85.81c-.06.57-.38.97-.82.48-.42-.17-.74-.59-.97-1.27-1.53-.36-3.15-.44-4.86-.26-.5.52-1,.99-1.5,1.41-.05.86-.36.8-.63.02l.03-.91c.04-1.17,1.35-1.87,2.69-1.87h3.04c1.62,0,2.82.93,3.01,2.4Z"/>
      <path class="cls-145" d="M442.63,67.12v.3s-2.44,0-2.44,0c-.32,0-.53-.13-.59-.31h3.03Z"/>
      <path class="cls-169" d="M143.51,81.58c1.91.12,3.62-.59,4.35-2.42,1.25.02,2.25.24,3.46.6-1.54,4.31-7.61,4.79-11.53,3.32-2.55-.95-4.11-3.02-4.1-5.51,0-2.63,1.57-4.78,4.18-5.73,3.86-1.41,9.8-1.11,11.44,2.94l-3.5.57c-1.07-1.93-3.38-2.33-5.37-1.85s-2.93,1.96-2.93,3.91c0,2.34,1.45,4.01,4,4.16Z"/>
      <path class="cls-103" d="M168.85,77.7c-.56,1.94-.18,3.8-.2,5.76-1.19.18-2.34.13-3.54,0v-8.8s2.73-.06,2.73-.06c.37,0,.64.5.68.98,1.97-1.32,4.56-1.62,6.81-.58,1.06.49,1.56,1.55,1.56,2.68v5.83s-3.43-.04-3.43-.04l-.15-5.88c-.03-1.01-1.26-1.3-2.06-1.28s-2.09.27-2.41,1.38Z"/>
      <path class="cls-117" d="M126.12,83.45l-3.5.03v-8.79c1.14-.1,2.06-.19,3.07-.02.18.06.35.6.46.94,1.11-1.4,2.98-1.67,4.73-.83-.18.66-.34,1.36-.77,1.95-.22.3-1.01.08-1.31,0-1.4-.38-2.58.45-2.6,1.78l-.08,4.95Z"/>
      <rect class="cls-131" x="117.27" y="74.59" width="3.41" height="8.96" transform="translate(-.13 .2)"/>
      <path class="cls-65" d="M507.76,79.54c-.36.47-.55.34-.39-.24-.31-.35-.24-.87.22-1.56-.13-.16-3.74-1.33-3.95-1.3-.41.06-2.63,4.15-2.38,4.46.11.14,3.36.75,3.54.75.26-.41.54-.42.98-.18.31-.46.51-.35.37.22-.32.43-.77,1.29-1.52,1.39-2.54.34-6.11-.96-4.9-2.43.05.52,0,.84.44,1.09-.09-1.06.11-1.67.45-2.38-.39.04-.65.04-.74-.06-.07-.09,1.66-3.69,3.43-4.9,1.21.55,2.62.9,3.68,1.6l1.23.81c1.12.74.05,2.03-.47,2.73Z"/>
      <path class="cls-41" d="M78.63,73.13l-13.3,1.7c-.34.5-.99.07-.5-.34l12.15-1.6,6.41-.66c.29-.03.26.26.13.37-.51.41-2.26.2-4.88.53Z"/>
      <rect class="cls-180" x="469.95" y="79.87" width="5.02" height="1.38" transform="translate(386.95 552.15) rotate(-89.4)"/>
      <path class="cls-46" d="M293.7,86.31c-.62.87-1.77-.06-.92-.78l-.64-.09c-1.03-1.39-4.82-.68-6.31-.19.31,1.16-.12,1.88-.9.83-.48.12-.45-.16.07-.86.35-1.18,1.37-1.82,2.65-1.82h3.03c1.82,0,3.04,1.17,3.02,2.91Z"/>
      <rect class="cls-118" x="117.85" y="70.72" width="2.23" height="3.39" transform="translate(45.8 190.92) rotate(-89.64)"/>
      <path class="cls-19" d="M507.76,79.54l-1.61,2.16-.37-.22c-.68-.65.72-2.53,1.59-2.19l.39.24Z"/>
      <path class="cls-15" d="M514.67,81.29c.24-.86.75-1.54,1.53-2.1-.2.91-.63,1.55-1.53,2.1Z"/>
      <path class="cls-52" d="M513.16,83.41c.24-.86.75-1.54,1.53-2.1-.2.91-.63,1.55-1.53,2.1Z"/>
      <polygon class="cls-132" points="111.38 80.88 104.32 80.78 102.9 83.44 99.08 83.47 105.79 71.34 109.75 71.3 116.82 83.44 112.78 83.46 111.38 80.88"/>
      <polygon class="cls-72" points="110.06 78.55 105.4 78.61 107.72 74.3 110.06 78.55"/>
      <path class="cls-157" d="M199.74,82.56c-2.74,2.29-7.71,1.24-8.78-1.57-.66-1.72-.56-3.74.82-5.01,2.13-1.96,5.16-2.06,7.8-.6l.11-4.03c1.11-.06,2.22-.13,3.4.11l.08,12.01-2.74.07c-.21,0-.59-.33-.69-.98Z"/>
      <circle class="cls-178" cx="196.91" cy="79.1" r="2.86"/>
      <path class="cls-80" d="M212.23,82.71c-1.94,1.14-4.16,1.38-6.27.74-1.1-.33-1.74-1.29-1.78-2.29-.05-1.11.76-2.17,1.96-2.38l5.13-.88c.44-.08.83-.28.85-.65.06-1.2-3.17-1.73-4.75.06l-2.91-.29c.4-.96,1.13-1.89,2.2-2.22,3.61-1.1,8.81-.55,8.82,2.41v4.12c.02.82.21,1.43.75,2.1l-2.78.11c-.41.02-.82-.21-1.24-.85Z"/>
      <path class="cls-147" d="M211.7,81.22c-.92.93-2.56,1.12-3.79.46-.31-.17-.67-.99-.2-1.3,1.2-.79,2.81-.75,4.35-.96.27.72.05,1.39-.36,1.8Z"/>
      <path class="cls-35" d="M153.38,83.23c-1.19-.48-1.58-1.6-1.39-2.6.17-.92.89-1.74,2.01-1.93l5.7-.95c.31-.05.23-.75.06-.94-.84-.94-3.4-1.03-4.41.52l-3.02-.32c.74-2.89,5.19-3.09,8.55-2.42,4.04.81,1.32,5.23,3.05,8.87h-3.08c-.43,0-.63-.65-.74-.87-1.97,1.36-4.49,1.52-6.71.62Z"/>
      <path class="cls-183" d="M159.42,81.28c-.85.8-2.51.97-3.57.4-.27-.14-.66-.86-.33-1.17,1.09-.99,2.91-1.01,4.31-1,.15.76,0,1.37-.41,1.77Z"/>
      <path class="cls-2" d="M186.13,82.66c-1.86,1.24-4.2,1.4-6.41.69-1.09-.35-1.74-1.38-1.68-2.45.05-.93.92-1.94,2.01-2.15l5.87-1.13c.32-.64-.68-1.42-1.47-1.43-1.29-.02-2.34.05-3.11,1.19l-2.89-.34c.59-2.85,5.51-3.19,8.69-2.34,1.3.34,2.2,1.37,2.21,2.72v4.23c.02.67.36,1.14.64,1.83l-2.85.07c-.41.01-.77-.26-1.01-.89Z"/>
      <path class="cls-156" d="M182.06,81.79c-.48-.22-.61-.66-.61-.9,0-.37.29-.77.77-.86l3.72-.69c.04.63.07,1.23-.17,1.56-.79,1.12-2.38,1.48-3.7.88Z"/>
      <path class="cls-142" d="M507.37,79.29l-1.59,2.19-.92,1.01c-1.32-1.25-3.57-.21-4.32-1.48.56-1.92,1.56-3.73,2.88-5.27l4.95,1.62c-.1.87-.59,1.38-1,1.94Z"/>
      <path class="cls-133" d="M275.32,86.29c-.07.23-.17.58-.35.6-.69.06-6.25.03-6.54-.11-.23-.1-.33-.37-.42-.61,0-.94.68-2.07,1.81-2.06l3.86.03c1.15,0,1.75,1.06,1.65,2.15Z"/>
      <path class="cls-150" d="M267.37,86.19l.32.14c-.09,3.9,0,7.79.25,11.66,1.03,1.85,7.28,2,7.73-.43l.04-11.22.66-.34h7.69c.49-.19.78-.16.87.08l.61.21.05,11.25c.6,2.23,5.93,1.83,7.24.61l.26-11.48.61-.35,84.25-.15.19.15c-.4,4.89-.69,9.8-.87,14.73l-.31.28c-98.65.22-197.37.25-296.17.1l-.36-.37-.02-14.72c.36-.56.59-.66.7-.3,62.02.09,124.03.04,186.04-.15l.21.31Z"/>
      <path class="cls-47" d="M267.4,85.28c.57-.09.44.77-.03.91H80.82s.04,15.14.04,15.14h296.1c.26.09.26.19,0,.3l-.29.61c-98.46,0-196.93,0-295.42.01l-.38-.61c-.2-.2-.49-.37-.86-.28l-.61-.28c0-4.84,0-9.68,0-14.52l.61-.36c.1-.52.2-.64.31-.36l-.05-9.02.4-.2.41,9.28h184.71c.93,0,1.24-.04,1.62-.61Z"/>
      <path class="cls-98" d="M284.93,86.08l-8.83.12-.03,10.86c0,1.59-1.37,2.78-2.92,2.53-.98-.09-1.78-.15-2.8.02-1.32.22-2.94-.73-2.94-2.26l-.05-11.16.63-.02.61.35.02,10.04c-.4,2.43,5.27,2.27,6.08.94v-10.78s.62-.44.62-.44c.3-.12.58-.26.82-.48l7.87.08c.48,0,.78-.37.98-.67-.08.25-.07.56-.07.86Z"/>
      <path class="cls-25" d="M222.98,88.6c1.69.46,1.56,4.69.19,5.44-3.54,2.38-4.76-3.95-2.29-5.42l2.1-.02Z"/>
      <path class="cls-39" d="M279.17,88.64c.29.47.28,1.11-.02,1.95-.82,5.2,4.06,3.71,2.6-.6l.46-.52c.09-.26.23-.22.43.12.23,1.23.51,2.9-.17,4.22-.61,1.2-3.3,1.27-4,.15-.91-1.46-.84-5.43.7-5.32Z"/>
      <path class="cls-130" d="M142.04,88.93c1.36,1.25,1.47,4.91-.59,5.59-1.04.34-2.7.39-3.17-.9-.41-1.13-.05-2.59-.16-3.78-.05-.61.37-.76.68-.78.36.46.41,1.13.16,2.01-.16,4.9,4.29,2.69,2.62-1.51l.45-.62Z"/>
      <path class="cls-139" d="M261.28,94.38c-.3-.44-.16-.53.42-.26l.68-.4c2.66.44,2.47-6.06-.69-4.37l-.64-.43c.56-.72,1.38-1.03,2.16-.85.62.14,1.37.47,1.66,1.24.6,1.61.75,3.72-.58,4.98-.74.69-2.29.5-3,.09Z"/>
      <path class="cls-202" d="M220.88,88.62c-1.63,1.5-1.22,4.96-.05,5.53.75.37,1.6.19,2.34-.1.23-.16.31-.09.25.19-.81.8-2.89.68-3.56-.44-.52-.87-.46-4.18-.06-4.73.18-.25.56-.44,1.08-.44Z"/>
      <path class="cls-129" d="M223.42,94.23l-.25-.19c.86-.74.58-1.87.64-3.01s.09-2-.83-2.43c1.57-.01,1.59,1.72,1.37,4.2-.06.64-.46.97-.93,1.43Z"/>
      <path class="cls-40" d="M261.7,94.13l-.42.26c-.65-.38-.89-.8-.89-1.53v-3.04c0-.57.36-.73.65-.89l.51.51c-.51,1.69-.29,3.08.14,4.69Z"/>
      <path class="cls-21" d="M142.04,88.93c-.06.13-.14.25-.24.34-.12.1-2.6-.04-2.99-.21.94-1.35,2.41-1.17,3.23-.13Z"/>
      <path class="cls-144" d="M332.16,88.64c-.18.53-.76.72-1.73.56-.55.38-1.06.57-1.52.59l-.32-.05c0-.36.41-1.02.76-1.2.93-.48,2.02-.32,2.81.1Z"/>
      <path class="cls-49" d="M282.64,89.59l-.43-.12c-.83-.2-1.71-.28-2.64-.23l-.39-.6c.56-.47,1.21-.41,1.81-.33.98-.13,1.39.46,1.65,1.28Z"/>
      <path class="cls-34" d="M216.01,93.47c-.7,1.65-3.44,1.64-4.3.35-.51-.77-.58-4.18.08-4.94.5-.57,1.13-.62,2.04-.62,1.06,0,2.25.35,2.33,1.63.06,1.03.34,2.44-.15,3.58Z"/>
      <path class="cls-69" d="M215.44,89.27c.57,1.66.6,4.94-1.52,5.06-.52.03-1.83-.19-1.86-.84-.08-1.42-.31-2.86.12-4.21.32-1.04,2.92-1.02,3.26,0Z"/>
      <path class="cls-66" d="M255.99,94.38c-.67.52-2.25.45-2.87.06-1.18-.75-1.19-2.18-1.21-3.39-.03-1.69.81-2.76,2.39-2.99,1.28-.19,2.55.89,2.73,2.44.15,1.3.23,2.91-1.05,3.89Z"/>
      <path class="cls-143" d="M256.33,93.32c-.16.75-1.28,1.05-1.82,1.05s-1.66-.3-1.82-1.05c-.25-1.18-.38-2.73.1-3.95.44-1.13,3-1.13,3.44,0,.48,1.23.35,2.77.1,3.95Z"/>
      <path class="cls-73" d="M199.48,93.85c-.77,1.32-3.42,1.08-4.02-.14s-.51-2.81-.3-4.08c.18-1.09,1.31-1.55,2.18-1.59.82-.04,2.08.33,2.33,1.38.3,1.24.56,3.13-.19,4.42Z"/>
      <path class="cls-181" d="M199.25,93.36c-.22.88-1.26.95-1.93.95-.56,0-1.64-.33-1.7-1.17-.09-1.2-.17-2.64.21-3.85.32-1.02,2.59-.98,3.19-.18.92,1.22.63,2.71.23,4.26Z"/>
      <path class="cls-45" d="M191.49,93.53c-.52,1.6-3.51,1.62-4.21.18-.62-1.26-.56-3.01-.22-4.29.28-1.04,1.5-1.42,2.35-1.38.75.04,2.08.52,2.2,1.5.15,1.21.32,2.61-.12,3.98Z"/>
      <path class="cls-122" d="M187.57,93.29c-.33-1.29-.25-2.86.11-3.99s2.8-1.03,3.31-.01c.64,1.25.69,2.93.09,4.2-.54,1.15-3.15,1.22-3.5-.19Z"/>
      <path class="cls-23" d="M175.2,93.53c-.32,1.26-2.31,1.36-3.21,1.05-1.27-.45-1.57-1.89-1.52-3.22.06-1.54.18-2.64,1.69-3.12.94-.3,2.78-.16,3.09,1.36.22,1.09.26,2.69-.06,3.94Z"/>
      <path class="cls-28" d="M174.52,93.74c-.47.64-2.84.56-3.13-.19-.46-1.17-.46-2.97-.06-4.25.34-1.07,2.8-1.04,3.31,0,.62,1.26.81,3.18-.12,4.44Z"/>
      <path class="cls-60" d="M158.76,93.74c-.55,1.12-2.53,1.2-3.39.7-1.31-.76-1.22-2.13-1.23-3.4-.01-1.68.82-2.77,2.41-2.99,1.42-.2,2.68,1.07,2.7,2.8.01.81-.04,1.98-.49,2.89Z"/>
      <path class="cls-143" d="M158.75,91.33c-.01,1.34.14,2.41-1.24,2.91-.89.32-2.61-.01-2.7-1.37-.07-1.08-.15-2.25.09-3.28.26-1.1,1.82-1.18,2.65-.91,1.16.38,1.21,1.46,1.2,2.65Z"/>
      <path class="cls-112" d="M207.64,93.86c-.74,1.27-3.51,1.16-4.09-.07-.63-1.32-.44-3.1-.18-4.44.18-.87,1.49-1.27,2.13-1.3.84-.04,2.09.32,2.34,1.38.3,1.25.57,3.13-.2,4.43Z"/>
      <path class="cls-82" d="M207.43,93.64c-.95.89-2.92,1.04-3.6-.19-.58-1.07-.5-2.82,0-3.94s3-1.35,3.42-.23c.51,1.35.09,2.77.18,4.36Z"/>
      <path class="cls-63" d="M227.91,93.48c-.36-1.31-.23-2.72-.1-3.93.09-.87,1.18-1.27,1.74-1.43.83-.23,1.91,0,2.47.71.91,1.17,1.04,5.08-.91,5.73-1.02.34-2.83.21-3.19-1.09Z"/>
      <path class="cls-122" d="M231.83,93.18c-.34,1.29-1.84,1.24-2.55,1.01-1.96-.64-1.63-5-.11-5.51.86-.29,2.43-.18,2.65.91s.29,2.5,0,3.59Z"/>
      <path class="cls-18" d="M166.8,93.91c-.68,1-2.85,1.17-3.64.23-1.14-1.37-1.25-4.07-.14-5.28,1.25-1.37,3.64-.85,4.04.65s.66,3.06-.26,4.41Z"/>
      <path class="cls-37" d="M163.07,93.22c-.25-1.25-.18-2.54-.05-3.71.09-.81,1.29-.91,1.89-.94.66-.03,1.59.21,1.83,1.09.3,1.07.25,2.5-.04,3.6-.22.81-1.19.99-1.82,1.07-.52.06-1.64-.27-1.81-1.11Z"/>
      <path class="cls-84" d="M183.22,93.71c-.61,1.42-3.55,1.37-4.18.08s-.44-3.07-.14-4.37c.23-.98,1.34-1.33,2.11-1.38.72-.04,2.14.36,2.36,1.31.28,1.22.45,2.96-.14,4.34Z"/>
      <path class="cls-31" d="M182.84,93.59c-.57,1.17-3.17.97-3.4-.1-.29-1.34-.33-2.93.05-4.19.33-1.1,2.81-1.03,3.32-.02.64,1.27.7,2.93.03,4.31Z"/>
      <path class="cls-149" d="M105.62,93.49c-.36-1.23-.23-2.54-.14-3.7.11-1.43,1.99-1.92,2.99-1.68,1.64.39,1.89,1.66,1.86,3.25-.02,1.27-.15,2.58-1.32,3.14-.97.46-2.99.37-3.39-1Z"/>
      <path class="cls-71" d="M109.65,92.88c-.03,1.21-1.59,1.66-2.46,1.44-2.16-.55-1.81-4.86-.5-5.54.72-.37,2.52-.43,2.82.52.36,1.12.16,2.4.13,3.58Z"/>
      <path class="cls-97" d="M236.01,93.45c-.23-1.25-.22-2.69,0-3.89.23-1.29,2.03-1.7,2.91-1.44,1.54.44,1.87,1.64,1.88,3.22,0,1.34-.23,2.77-1.53,3.23-1,.35-3.03.13-3.26-1.12Z"/>
      <path class="cls-122" d="M240,93.2c-.3,1.19-1.87,1.32-2.58,1.05-1.75-.67-1.7-4.78-.27-5.47.8-.39,2.59-.37,2.86.82.24,1.08.29,2.47,0,3.61Z"/>
      <path class="cls-23" d="M130.17,93.67c-.43-1.15-.3-2.93-.11-4.09.23-1.37,2-1.65,2.85-1.42,1.52.41,1.95,1.64,1.92,3.18-.03,1.28-.22,2.63-1.36,3.09-.94.38-2.79.63-3.31-.77Z"/>
      <path class="cls-181" d="M134.05,93.32c-.17.74-1.28,1.04-1.82,1.05-.67,0-1.77-.39-1.9-1.24-.37-2.51-.18-4.48,1.61-4.55.69-.03,1.8-.02,2.05.83.35,1.18.33,2.72.05,3.91Z"/>
      <path class="cls-51" d="M118,88.93c.76.87.98,4.97-1.01,5.64-1.13.38-3.02.25-3.28-1.12-.23-1.24-.17-2.68-.02-3.86.2-1.67,3.4-1.69,4.31-.66Z"/>
      <path class="cls-173" d="M117.82,92.86c.03.95-1.01,1.39-1.67,1.49-.85.12-1.92-.29-2.11-1.31-.2-1.07-.31-2.34.05-3.43.43-1.3,3.04-1.52,3.58-.32.48,1.08.13,2.44.16,3.57Z"/>
      <path class="cls-159" d="M121.97,93.48c-.35-1.28-.3-2.76-.09-3.92.24-1.29,1.99-1.69,2.85-1.39,1.45.51,1.97,1.66,1.95,3.17-.02,1.27-.17,2.59-1.33,3.14-.95.46-3.01.38-3.39-1.01Z"/>
      <path class="cls-27" d="M125.89,93.2c-.3,1.19-1.87,1.32-2.58,1.05-1.75-.67-1.7-4.78-.27-5.47.8-.39,2.59-.37,2.86.82.24,1.08.29,2.47,0,3.61Z"/>
      <path class="cls-160" d="M248.3,88.83c.91.85,1.2,5.04-.86,5.74-.99.33-2.81.21-3.15-1-.35-1.28-.51-3.19.06-4.41.6-1.31,3.09-1.12,3.95-.32Z"/>
      <path class="cls-69" d="M248.17,93.2c-.3,1.19-1.87,1.32-2.58,1.05-1.75-.67-1.7-4.78-.27-5.47.8-.39,2.59-.37,2.86.82.24,1.08.29,2.47,0,3.61Z"/>
      <path class="cls-115" d="M150.65,93.58c-.37,1.29-3,1.59-3.81.57-1.19-1.49-1.15-4.12.05-5.43,1.12-1.22,3.54-.64,3.83.82.24,1.23.32,2.67-.07,4.04Z"/>
      <path class="cls-152" d="M150.58,91.33c-.01,1.34.14,2.41-1.24,2.91-.89.32-2.61-.01-2.7-1.37-.07-1.08-.15-2.25.09-3.28.26-1.1,1.82-1.18,2.65-.91,1.16.38,1.21,1.46,1.2,2.65Z"/>
      <path class="cls-193" d="M282.2,89.47c.45,1.17.57,2.75-.01,4.02-.52,1.14-2.89,1.28-3.43.13-.36-.76-.48-4.1.41-4.98l1.84-.04c.53-.01.99.34,1.19.86Z"/>
      <path class="cls-193" d="M142.04,88.93c.43,1.32.53,2.91.18,4.41-.16.71-1.28,1.03-1.82,1.02s-1.66-.29-1.82-1.05c-.26-1.26-.42-3.09.22-4.26.61-.74,2.25-.51,3.23-.13Z"/>
      <path class="cls-20" d="M261.7,94.13c-1.46-.72-1.16-2.98-.65-5.2.92-.32,2.28-.67,3.17.12.62.55.82,4.14-.15,4.86-.65.48-1.53.64-2.37.23Z"/>
      <path class="cls-10" d="M378.44,84.37l.59.37c-.4,5.54-.68,11.08-.87,16.61.3.48.3.87,0,1.18l-.3.31c-.75.32-1.52-.54-.91-1.22v-.3c.04-1.28.29-2.53.29-3.94v-2.71s.37-4.55.37-4.55l.33-3.97.23-2.4c.31.11.27.38.26.61Z"/>
      <path class="cls-173" d="M316.41,93.76l-.33.27c-3.89,2.41-4.97-3.47-2.71-5.48,3.72-1.16,4.2,2.68,3.04,5.22Z"/>
      <path class="cls-176" d="M308.18,93.8c-.1.07-.22.22-.29.44-4.01,2.29-4.65-4.5-2.69-5.67,3.07-1.83,4.51,3.03,2.98,5.22Z"/>
      <path class="cls-166" d="M370.1,100.03c-.78-.74-.38-1.51-.49-2.39l-1.09,2.36c-.75-.52-.77-1.25-1.08-2.06l-.54,2.12c-.57-1.4-.44-2.72-.04-4.17,1.17.83,1.03,1.89,1.41,3.08.88-1.56,1.31-3.57,1.83-2.76.07.1.12.31.11.57l-.11,3.25Z"/>
      <path class="cls-43" d="M308.18,93.8c.3-1.32.63-2.74.17-4.11-.28-.82-1.13-1.07-1.81-1.11-.55-.03-1.81.11-1.86.93-.08,1.32-.36,3.14.15,4.21.67,1.06,2.28.51,3.06.51-.82.75-2.67.64-3.47-.27-.61-.7-.99-4.73.69-5.61.9-.47,1.96-.42,2.8.12,1.34.86,1.27,4.63.26,5.32Z"/>
      <path class="cls-187" d="M373.82,99.99c-.73-.7-.85-1.19-1.56-1.19s-.87.51-1.53,1.18c.13-1.5,1.05-3.83,1.54-3.84.54-.02,1.47,2.15,1.56,3.85Z"/>
      <path class="cls-11" d="M328.59,89.74c.13-.25.24-.23.32.05l.58.38c-.35,2.07-.11,4.53,2.63,3.19.03-1.61.04-3.18.05-4.71.73.16,1.15.52,1.16,1.24l.05,2.67c.01.71-.23,1.31-.63,1.65-.81.68-2.79.68-3.6,0-.4-.33-.65-.94-.63-1.65l.07-2.82Z"/>
      <path class="cls-162" d="M355.4,98.13c.05.74.44,1.17.87,1.32.59.2.87-.31,1.58-.92.49,1.22-.96,1.43-1.38,1.44-1.25-.12-1.61-.99-1.58-1.97-.08-.94.39-1.68,1.22-1.91.77-.21,2,.12,1.74,1.38-.48-.48-.86-.98-1.34-.93-.7.07-1.17.69-1.11,1.59Z"/>
      <path class="cls-182" d="M361.22,93.12c.1-.26.2-.25.31.01.43-.19.85-.05,1.26.4,1.78.65,2.47-.45,2.07-3.3-.17-.55-.18-1.06-.05-1.54,1.67.44,1.95,5.36-.44,5.94-1.2.29-3.14-.1-3.15-1.51Z"/>
      <path class="cls-85" d="M365,96.73l-.09,3.23c-.1.01-.3.06-.3.06-.55-.94-.13-2.1-.34-3.16-.2-.13-.59-.23-.7-.22-.26.02-.22-.48-.05-.48h2.55c-.03.59-.57.59-1.07.57Z"/>
      <path class="cls-96" d="M360.93,97.52c.15.48,1.84-.18,1.65.56-.1.4-1.17-.06-1.51.18-.44.31.13,1.34-.33,1.52-.12.04-.35.02-.35-.3l.05-3.22c.85-.17,1.67-.25,2.64.03-.71.36-1.49.19-2.19.28-.02.5-.01.78.04.94Z"/>
      <path class="cls-68" d="M340.6,94.36c-.36.21-.45.06-.31-.3.18-1.78.22-3.69-.3-5.4.1-.18.21-.2.34-.05,1.77-.07,1.55,5.06.28,5.75Z"/>
      <path class="cls-7" d="M313.37,88.55c-1,1.15-1.36,3.68-.48,5.06.72,1.13,2.45,1.02,3.19.42-.72,1.06-3.15.93-3.68-.44-.48-1.24-.23-2.74-.13-3.94.07-.78.65-.92,1.1-1.11Z"/>
      <path class="cls-186" d="M340.29,94.06c.17-.08.41.17.31.3-.96.52-2.95.63-3.59-.59s-.34-2.78-.25-3.92c.11-.26.22-.25.33.02l.53.41c-.39,1.68-.07,2.82.96,3.4.75-.12,1.32.01,1.7.38Z"/>
      <path class="cls-151" d="M316.41,93.76c.34-1.47.79-3.45-.39-4.8-.46-.53-2.06-.55-2.65-.41.74-.31,1.99-.53,2.8,0,1.12.74,1.32,4.35.24,5.21Z"/>
      <path class="cls-191" d="M340.33,88.6c-.09,0-.22-.02-.34.05l-.18.37c-.95.12-1.85.4-2.72.85l-.33-.02c.09-1.18,1.14-1.76,2.38-1.58.44.07,1.01-.11,1.18.33Z"/>
      <path class="cls-203" d="M361.53,93.14h-.31s-.03-3.33-.03-3.33c0-.53.35-.74.63-.89.43.4.52.99.28,1.78.21,1.18.02,2-.58,2.44Z"/>
      <path class="cls-74" d="M364.81,88.69c-.42.63-2.56.92-2.99.23.77-.93,2.13-.74,2.99-.23Z"/>
      <path class="cls-136" d="M324.88,93.72c-.63,1.38-3.53,1.37-4.19.06s-.45-3.06-.13-4.37c.24-1,1.51-1.44,2.34-1.37.74.07,2.02.6,2.16,1.56.18,1.24.44,2.77-.18,4.11Z"/>
      <path class="cls-196" d="M324.4,93.59c-.26,1.08-2.94,1.1-3.25.05-.38-1.31-.35-2.98,0-4.35.26-1.05,2.98-1.04,3.25,0,.35,1.32.35,2.84,0,4.31Z"/>
      <path class="cls-125" d="M353.22,93.49c-.36-1.23-.23-2.54-.14-3.7.11-1.43,1.99-1.92,2.99-1.68,1.64.39,1.89,1.66,1.86,3.25-.02,1.27-.15,2.58-1.32,3.14-.97.46-2.99.37-3.39-1Z"/>
      <path class="cls-173" d="M357.25,92.88c-.03,1.21-1.59,1.66-2.46,1.44-2.16-.55-1.81-4.86-.5-5.54.72-.37,2.52-.43,2.82.52.36,1.12.16,2.4.13,3.58Z"/>
      <path class="cls-44" d="M349.24,93.9c-.64,1.21-3.45,1.13-4.03-.11-.62-1.33-.44-3.09-.17-4.44.17-.83,1.48-1.31,2.1-1.26.76.06,2.12.38,2.36,1.31.35,1.32.52,3.04-.25,4.5Z"/>
      <path class="cls-175" d="M349.02,93.36c-.11,1.15-1.9,1.16-2.63.88-1.79-.67-1.62-4.54-.34-5.43.63-.44,2.56-.38,2.87.51.4,1.13.22,2.61.09,4.03Z"/>
      <path class="cls-94" d="M299.8,88.55c1.27.75,1.13,4.64.41,5.5s-3.17.89-3.92,0c-.71-.84-.77-4.39.12-5.21.76-.7,2.52-.8,3.39-.29Z"/>
      <path class="cls-28" d="M299.9,93.75c-.85.73-2.88.99-3.27-.14-.42-1.22-.31-2.99-.01-4.33.21-.95,2.5-1,3.03-.32,1.06,1.37.94,3.18.25,4.79Z"/>
      <path class="cls-146" d="M332.16,88.64c.49.54.64,1.05.63,1.77l-.08,3.28c-1.04.89-3.08.95-3.66-.4-.47-1.09-.21-2.45-.14-3.5.74-1.43,1.56-1.26,3.25-1.15Z"/>
      <path class="cls-31" d="M364.81,88.69c.5.15.67,1.13.65,1.69l-.08,2.76c-.02.79-1.14,1.24-1.85,1.2-.83-.04-1.57-.46-2.01-1.2,0-1.42-.2-2.86.29-4.22.92-.28,2.05-.51,2.99-.23Z"/>
      <path class="cls-104" d="M374.28,91.52c.02,1.38-.4,2.69-1.52,3.05s-2.96.15-3.24-1.2c-.24-1.19-.27-2.65-.04-3.79.27-1.37,2-1.63,2.86-1.41,1.66.42,1.91,1.5,1.94,3.36Z"/>
      <path class="cls-69" d="M373.46,93.45c-.18.91-1.23.96-1.78.93-.62-.04-1.57-.25-1.79-1.13-.29-1.14-.44-2.67.06-3.88.45-1.11,2.99-1.13,3.44,0,.48,1.2.34,2.8.08,4.08Z"/>
      <path class="cls-140" d="M339.99,88.65c1.08.41.95,1.28.98,2.39.03,1.17.4,2.33-.68,3.02-.92.42-2.62.46-3.08-.79-.38-1.02-.33-2.49-.12-3.39.31-1.32,1.79-1.48,2.9-1.22Z"/>
      <path class="cls-111" d="M80.3,105.55c.61.35,1.16.26,1.81.35-.12.67-.35,1.74-.91,2.15l-14.09.13c-1.41.01-2.08-.82-2.12-2.37.6.28,1.29-.17,1.79-.13.25-.38.68-.26,1.31.36,0,0,3.7-.02,11.11-.05.44-.44.81-.58,1.12-.43Z"/>
      <path class="cls-116" d="M67.23,104.13c.53.45,1.09.82,1.68,1.13.68.15,9.19.04,9.87-.12.45-.11.57-1.05.61-1.46l.63-.28c.2,0,.55-.18.67.2.07.22-.03.58-.07.77l-.31,1.18c-.73.8-1.53,1.02-2.72,1.02l-9.06-.03c-.75,0-1.24-.75-1.75-.86l-.47-1.51c.07-.16.14-.34.13-.51-.02-.3.4-.37.49-.07.05.15.06.31.3.55Z"/>
      <path class="cls-114" d="M80.02,103.4c-.03.75-.22,2.33-1.31,2.34l-9.61.13c-1.11.01-1.87-.82-1.88-1.75,0-.16.04-.34.14-.47.17-.22.41-.24.8-.24h11.85Z"/>
      <path class="cls-9" d="M80,86.19h-12.99s.04-8.46.04-8.46c0-1.22.84-2.09,2.09-2.09h8.75c.98,0,2.08.71,2.08,1.77l.02,8.78Z"/>
      <path class="cls-119" d="M80,86.19v15.16s-12.97,0-12.97,0l-.03-15.17c-.02-.14-.02-.28.02-.4.18-.55,10.24-.26,11.49-.19.82-.17,1.32.03,1.48.61Z"/>
      <path class="cls-201" d="M73.2,90.49c-1.15-.12-1.46-.89-1.41-1.73.04-.77.6-1.55,1.58-1.7,1.13-.18,2.11.7,2.12,1.7s-.97,1.87-2.29,1.73Z"/>
      <path class="cls-194" d="M78.26,94.86c-4.07-.22-6.43,1.77-5.73-1.37,1.01-.67,2.18-.12,3.24.3l2.53.14-.04.93Z"/>
      <path class="cls-150" d="M547.67,86.11c-.11.87-.54,1.78-1.58,2.18l-19,7.28-17.9,5.97c-.9.04-1.81.17-2.72.4h-31.58s-.44-.6-.44-.6c-.36-1.32-.41-2.02,1.04-2.54,3.27-.22,4.4-.9,3.4-2.03-1.45-.37-2.86-.85-4.22-1.45.09-1.23.2-2.53.35-3.91l-.18-1.09c-4.62-1.68-9.36-2.93-14.21-3.74l-.11-.4,87.17-.07Z"/>
      <path class="cls-165" d="M509.19,101.53c-1.65.55-3.62,1.56-5.36,1.57l-29.34.17c-.45-.08-.33-1.54-.04-1.94l11.74.04h6.17s16.55-.06,16.55-.06c.23,0,.35.18.29.22Z"/>
      <path class="cls-48" d="M327.02,106.18c-.02.16-.05.31-.14.4-.15.17-4.08.42-4.41.19-22.42,0-44.89-.01-67.42-.01l-5.44.38c.08.9-.06,1.7-.41,2.42-.93,0-1.34-.74-1.25-2.25-5.09.61-10.54,1.54-14.57,4.94l-1.33.51-.36.06-.31-.02c.04-.41.28-.78.68-1.11,5.94-4.93,16.22-6.13,24.17-6.13l62.56.04,7.65.17c.25,0,.58.26.58.4Z"/>
      <path class="cls-120" d="M322.47,106.78l-3.93.23-3.94.29-4.24.29-3.93.31-5.44.31-3.94.29-5.44.33-3.68.25-4.2.34-3.63.31-5.14.3-3.64.29-5.14.32-3.64.29-4.25.3-3.62.31-4.26.31-2.41.29c-1.85.22-3.51.33-5.13.92-.04-.13-.27-.31-.6-.31l-10.24.03c3.47-4.13,10.86-5.59,16.54-6.13l.12,2.56c.05,0,.16-.04.22-.16l.11-2.47,6-.41,63.45.03,3.99.59Z"/>
      <path class="cls-33" d="M525.82,1.61c.04.24.03.35.06.45l-3.99,3.8-40.54,43c-9.2,9.48-22.03,16.13-35.2,17.67-.6.07-1.17-.08-1.72-.33,0-.11-.18-.29-.3-.28,15.07-2.08,27.22-7.97,37.92-19.31l26.85-28.49,12.42-13.31c1.35-1.44,2.82-2.48,4.49-3.18Z"/>
      <path class="cls-105" d="M601.24,10.77c-.16-.38-.6-.25-.9-.24l-.35-.31c-3.1.09-6.2.03-9.28-.18l-.39-.63c.79,0,1.48-.07,2.16-.33.92-.35,2.05.04,3.07.14l9.85.96c-1.51.58-2.87.45-4.17.6Z"/>
      <path class="cls-106" d="M539.87,59.59c.15.59-.72,1.79-1.29,2.08.05.37.15.47.32.31-.08-.09-.15-.17-.13-.2.61-.96,4.57-7.24,4.96-7.45.31-.18,4,.19,4.53.34.19.05.19.25.08.45l-16.77,23.73c-.7.47-1.89-.17-2.55-.31l-16.01-3.41-7.53-3.07,7.32-9.18,1.12-.04c3.17,1.72,6.91,3.05,10.5,2.63l.03-14.43c.24-.48.66-.55,1.17-.38l5.09,3.35c.23-1.66,1.45-2.08,3.68-1.24l-1.66-2.74c-.13-.5.09-.96.65-1.37l-3.32-2.2c-.62-.4-.45-.82-.13-1.4l5.79-3.71c-.61-.35-.86-.82-.73-1.42l1.42-2.49c-1.25.51-2.35.52-3.31.04l.22-.72,4.27-5.44c1.69.11,2.88,2.64,3.57,4.15,4.9,10.7-.62,23.41-11.85,26.96-.07.1-.04,2.42.05,2.5.59.56,8.54-3.92,9.45-5.21l1.07-.12Z"/>
      <path class="cls-200" d="M572.6,20.58l-22.86,32.52-1.12,1.31c-.36.29-.92.31-1.69.05-1.22-.19-2.32-.17-3.3.07l-.19-.41-.12-1.17c3.47-7.8,2.23-16.89-3.15-23.51l-.19-1.17,5.18-6.68,2.31,2.22c.29-.08.39-.4.51-.57,0-.41,1.44-2.88,1.68-3.08.16-.13,3.68-.28,4.05-.02l18.68.08.2.35Z"/>
      <path class="cls-168" d="M537.2,30.92l-1.95,2.6-1.42,1.6c-.69.56-5.77,4.09-6.25,4.03-.52-.07-.8-.17-.99-.71l-.12-7.44c-1.32,1.09-2.21.47-2.67-1.87-.52,2.47-1.42,2.99-2.69,1.57v7.58c-.05.84-.47.85-1.21.78-1.65-1.04-3.31-1.99-5-2.84.25,1.71-.88,2.11-3.41,1.19.23.84.64,1.71,1.22,2.59.12.64-.24,1-.73,1.32l5.78,3.72c.59.4.58.94.07,1.45l-3.52,2.17.68.69c-.35,1.15-.83,2.25-1.46,3.33,2.41-.82,3.51-.32,3.3,1.5.89-.88,1.68-1.12,2.37-.74.06.61-.45.93-.78,1.35l-3.92,5.04c-.35.1-.71.14-1.06,0-3.01-1.14-6.66-7.59-7.53-10.66-3.63-12.81,6.35-26.01,19.89-24.71,3.09.3,9.73,2.66,11.28,5.41.18.32.2.69.15,1.05Z"/>
      <path class="cls-142" d="M533.83,35.12l-13.55,17.3-1.11,1.01c-.94.45-1.99,1.19-2.92,1.95l-.1-2.57-4.02.73,2.4-4.02c-.53-.38-1.03-.42-1.72-.66l4.98-3.08-7.12-4.58,1.57-.77-2.17-3.96,4.26.92-.12-2.42,6.27,3.73v-9.16c.87.29,1.28.98,1.98,1.6l1.32-3.92,1.35,3.94,1.9-1.62.15,9.14,4.89-2.91c.57-.34,1.06-.69,1.74-.67Z"/>
      <path class="cls-9" d="M539.62,27.87l-2.42,3.05c-5.63-6.35-14.9-7.77-22.25-3.46-5.82,3.42-9.15,9.59-9.21,16.19s3.2,12.56,8.73,16.18l-2.23,2.82c-6.36-4.2-10.05-11.3-10.11-18.72s3.61-14.69,10.01-18.95c8.74-5.81,20.13-4.51,27.48,2.89Z"/>
      <path class="cls-9" d="M512.8,62.87l2.18-2.81.94-.18c1.36.65,4.91,2.31,6.29,1.97l.05-6.09.6-.44v-.66s-.61-.69-.61-.69c.19-1.1.04-1.99-.44-2.67l11.49-14.56c.23.55.77.59,1.31.46l3.06-.7-2.31,3.94c.78.25,1.31.18,1.86.63l-7.2,4.62,4.7,3.12c-.67.29-1.12.39-1.57.81l2.5,4.04-4.04-.84-.32,2.28-6.3-4.15.03,15.27c-4.43.13-8.59-1.09-12.22-3.37Z"/>
      <path class="cls-174" d="M571.9,12.34c.29.64-.1,1.13-1.18,1.48l-5.15,1.48-33.17,3.62c-2.27-.1-4.22-.91-5.24-3.06-.38-.8-.97-2.93.03-3.27l2.95.32,24.02-.15,10.26-.3,7.48-.12Z"/>
      <path class="cls-9" d="M543.45,54.12c.13.12.22.22.21.25-1,1.67-2.31,3.62-3.46,5.2-.04.06-.17.05-.33.02-3.15,2.76-6.67,5.07-11.1,6.13l-.09-3.74c9.73-2.87,15.41-12.67,13.13-22.6-.71-3.08-2-5.84-4.23-8.06l2.41-3.03c6.36,7.23,7.68,17.29,3.46,25.84Z"/>
      <path class="cls-192" d="M568.86,8.1l-7.45-.17-29.13-.09-4,.32c-.81-.76.23-1.93.89-2.58,1.73-1.71,4.56-2.14,6.9-2.15,10.19.84,20.36,2,30.52,3.31,1.21.09,1.97.55,2.28,1.37Z"/>
      <path class="cls-22" d="M522.87,55.32l.03,7.16c-2.8,0-5.4-1.02-7.92-2.42l5.3-6.68c.93.9,1.6,1.71,2.59,1.94Z"/>
      <polygon class="cls-107" points="574.92 17.2 573.08 19.88 553.69 19.8 574.92 17.2"/>
      <path class="cls-163" d="M548.63,54.41l-.28.71c-.39-.69-2.22-.17-4.31-.75l-5.14,7.62c-.46.37-.63.2-.32-.31l1.29-2.08,3.58-5.47,3,.03c.76,0,1.48.41,2.18.26Z"/>
      <path class="cls-3" d="M592.49,9.08c-.51.36-1.23.47-2.16.33l-.42.58c-1.39-.24-2.6-.11-3.63.39,4.61-.01,9.23-.07,13.85-.16l.21.32c.46-.64,1.19-.57.9.24l-2.71.31-4.56.31-3.63.05c-1.15.02-2.13.33-3.4.17-1.47,4.46-6.71,4.63-11.35,5.64l-43.62,61.96,13.61,3.29c1.57.38,2.67,1.77,2.68,3.23s-1.09,2.77-2.62,3.34l-23.34,8.71-49.94,15.48-.66-.13c-.53-.53-.23-.82.41-1.03,9.36-2.7,18.67-5.5,27.93-8.41l3.79-.6.4-.63c1.65-.47,3.3-.79,4.96-.94l.07-.66c12.57-4.14,25.24-8.34,37.34-13.66.22-.6.58-.96,1.07-1.1l-1.52-2.21c-32.81-8.68-69.76-14.57-103.11-15.84l-.4-.62c-.26-.09-.26-.19,0-.3l.6-.33c.01-.13.03-.23.05-.23,1.33-.08,3.43-.2,4.72-.07l.38.61,3.78-.4c17.14,1.19,35.32,3.52,52.84,6.41-.51-.33-.76-.8-.52-1.4l7.08-9.16.7.09c-.61-.77,1.3-3.13,2.23-2.82l-.27-.64c1.53-2.04,3.09-4.02,4.97-5.75-.35-.46-.13-.93.67-1.43l12.1-15.46c.56-.57,1.19-1.05,1.89-1.43l-.24-.64c1.04-1.14,2-2.34,2.89-3.61l.72.04c-.34-.61,0-1.34.98-2.21.39-.76.87-1.04,1.44-.84-.17-.17-.4-.45-.3-.59.63-.9,5.14-6.58,5.63-6.68.53-.11,3.16,1.62,2.62,2.43.46-.6.81-.44.41.21l.32.25c-.49,1.22-1.49.92-2.99-.91-1.59,1.82-3.11,3.73-4.58,5.72l-.75-.02c.81.36-1.49,3.03-1.68,3.08-.25.07-.49.07-.74-.05l.31.59-3.83,4.89-.74-.03.3.6s-3.55,4.5-10.65,13.5c-.4.03-.78.18-1.14.46.35.44.17.94-.53,1.48.66.58,1.18,1.2,1.57,1.87.8.15.78.42,0,.66-.63.61-1.45.29-2.46-.95-1.62,1.83-3.18,3.74-4.68,5.72l-.75-.03c.7.7-1.28,3.13-2.18,2.81l.25.65-6.54,8.3,6.68,2.72,17.88,3.86,16.55-23.34.71.05c-.69-.37-.6-.61.28-.71l-.29-.28c7.66-11.02,15.43-22.09,23.32-33.22l.95-.33c-.58-.25-.42-.49.48-.7-.73-.95.85-2.35,1.84-2.68-.32-.08-.21-.21.31-.39l.21-.67,6.48-1.45c1.26-.34,2.79-1.08,3.22-2.27-3.69.02-7.37.18-11.02.49l-.46-.56c-.97.72-1.56.71-1.77-.03l-2.21.64c-12.99.36-26.09.51-39.19.53l-2.98-.28-.33-.65c-.29.9-1.17.54-1.27-.32-.24.92-1.88.18-2.43-.23-2.04-1.54-1.28-2.43.56-3.53.55-.33,2.28-.89,2.47-.04.46-.66,1.25-1.28,1.75-.3l.65-.66c11.24-.31,22.49-.36,33.76-.15,2.07.1,4.13.32,6.17.74.11-.56.26-.57.69-.59.58-.02,1.91.28,2.32.65l.46-.59c4.35.18,8.7.32,13.06.43-.64-1.21-1.74-1.81-3.05-2.17-7.93-2.2-15.62-3.08-23.56-3.84-9.61-.92-19.64-1.57-29.27-.47-1.29.55-2.5.73-3.63.54-.57.09-.55-.12-.06-.45,1.88-.79,3.92-1.58,6.21-1.59l14.43-.02,4.56.3,4.52.31,3.63.3,3.56.34c6.67.64,13.15,1.53,19.6,3.33,2.14.6,3.76,1.86,4.55,4.06l5.6.44Z"/>
      <path class="cls-138" d="M568.79,11.85l-11.27.32-13.65.3-10.11.12c-.88.01-1.76-.49-2.75-.27-.93.21-1.84-.16-2.73-.24-1.78-.15-3.54-.31-5.01-1.58.85-1.18,2.19-1.36,3.47-1.56,2.88-.45,5.6-.71,8.54-.5l1.81-.35,12.82.16,15.47.31,11.14.31,6.53.18,2.8.14c-.16.62-.57.58-.73.8-.19.25-.02.73.21,1.26l-8.12.33-8.41.26Z"/>
      <path class="cls-78" d="M590.33,9.41l5.33.33,4.96.17c-.03.28-.21.45-.27.62l-5.13.24-4.61.24c-1.53.08-3.36.22-4.87-.13-.45-1.8,1.92-1.65,4.6-1.48Z"/>
      <path class="cls-22" d="M522.87,54.66c-.95-.2-1.53-1.01-2.41-1.58.27-.78.93-1.23,1.37-1.78l1.07-.26-.03,3.62Z"/>
      <path class="cls-26" d="M538.89,61.98l-4.81,6.83c-.12.17-.29.14-.39.02l4.89-7.16.32.31Z"/>
      <path class="cls-150" d="M571.87,8.16c-1.56-.51-3.2-.96-4.92-1.35-8.84-1.16-17.72-2.19-26.63-3.07-4.71-.62-10.47-.8-12.9,4.15l-.89.58c-1.71.3-3.58.89-3.61,1.91-.03.88,1.57,1.63,3.01,1.9l.62.42c.06,3.78,1.94,5.98,5.76,6.23,11.04-.96,22.06-2.15,33.05-3.58,3.16-.63,5.51-1.45,8.32-2.97l2.48-.29,6.19-.18,3.94-.1c-.74,1.95-2.43,3.1-4.44,3.54l-6.6,1.47c-7.02,1.07-14.13,1.98-21.34,2.75l-.28.38c-1.46-.06-2.79.11-4,.51-.59,1.07-1.26,1.94-2.03,2.59l-2.49-1.97-5.46,6.81-1.11-.23c-23.8-19.45-50.13,15.31-26.68,33.98l.41,1.02-7.42,9.61c1.52,1.03,3.21,1.04,4.45,2.22-15.37-2.73-30.37-4.69-45.7-6.19l-3.41-.33-3.31-.3-3.65-.28-4.83-.26.17-.67c11.44-2.5,22.52-7,31.19-15.39,15.49-16.22,30.87-32.56,46.14-49,2.7-1.17,5.56-1.65,8.63-1.69l7.11-.09,3.92.25,4.51.26,4.58.26,4.21.33,9.89,1.08c4.97.54,9.8,1.42,14.5,3.02,1.41.48,2.55,1.52,3.04,3.05-2,.47-3.92-.02-5.89-.09l-8.51-.28Z"/>
      <path class="cls-145" d="M448.38,67.11l-2.38-.04-2.76-.27c-.79-.08-1.63.16-2.44-.15l3.64-.45c14.23-1.77,27.03-7.73,37.06-18.37l38.86-41.23c1.81-1.92,3.23-3.55,5.52-4.54l-2.08,3.13-32.16,34.31-7.11,7.5c-8.18,9.31-18.74,15.85-30.86,18.74l-5.3,1.38Z"/>
      <path class="cls-77" d="M527.2,12.58c.12,1.32.09,2.72.98,3.85.94,1.21,2.69,2.07,4.4,1.89l31.29-3.35c2.63-.28,6.62-1.19,8.04-2.63l1.77.03c-1.74,2.3-6.2,3.3-9.57,3.71l-13.7,1.67-15.97,1.66c-2.49.26-5.01.04-6.82-1.87-1.35-1.42-1.64-3.41-1.68-5.28.36.07.94.28,1.27.32Z"/>
      <path class="cls-77" d="M571.87,8.16l-3.01-.06c-2-.86-4.19-1.15-6.51-1.4l-20.44-2.28c-5.59-.62-12.03-1.16-13.64,3.74l-1.75.3c1.56-4.46,6.16-6.06,10.88-5.56l27.6,2.97c2.56.28,4.78,1.04,7.22,1.99.04.19-.2.31-.36.3Z"/>
      <path class="cls-8" d="M575.23,16.81l-.31.39-1.15.75-10.48,1.28,9.42.04.36.61-.48.7-22.75-.11-1.87,2.78c.04-.23-.24-.34-.41-.21l2-2.93c-1.4.14-2.45.7-3.77.19l29.43-3.49Z"/>
      <path class="cls-110" d="M521.07,18.65h-2.17c.12-1.06,1.02-1.56,1.62-2.36.23-.32-.27-.85-.5-.68l-.88.63c-.42-.54.23-1.08.63-1.16.6-.12,1.22.06,1.43.58.43,1.07-.65,1.49-1.19,2.4l1.13.02c.16,0,.12.56-.06.56Z"/>
      <path class="cls-188" d="M516.97,18.94c-.76-1.16.11-1.94.58-3.1-.48-.16-1.06.11-1.57-.61l2.76-.08c-1.08,1.09-1.25,2.1-1.77,3.79Z"/>
      <path class="cls-54" d="M522.57,16.48c.59-.08,1.1-.08,1.33.22.31.39.33,1.2.13,1.51-.27.44-1.12.73-1.71.3-1.1-.8-.85-3.02.42-3.44.41-.14.78.09.97.13.32.06.38.75,0,.82-.19.04-.57-.37-.76-.39-.36-.04-.66.65-.41.85Z"/>
      <circle class="cls-190" cx="522.98" cy="17.55" r=".59"/>
      <path class="cls-86" d="M503.83,103.1l-8.54,2.77-22.37,6.63c-.55.16-.99.21-1.22.63h-.3c-1.16-.14-2.37-.05-3.64.24h-100.39c-1.09-.3-2.13-.39-3.12-.25h-.31s-2.64-.9-2.64-.9c.38-.8,1.43-2.08,2.23-1.5l16.96-4.68c.49-.69,3.26-1.16,4.09-.96.07.02.1.17.13.36,23.09,5.51,46.69,4.67,69.71,1.98.67-.5,1.39-.59,2.16-.25,6.26-.65,12.22-1.94,17.9-3.89l.21-.61,28.77-.17.37.6Z"/>
      <path class="cls-10" d="M367.56,103.44c.01.26.11.51.39.7.13.44.02.69-.39.81,1.13.17,1.39-.29.66-.76-.13-.22-.02-.43.25-.43h1.51c.41.55.11,1.72-.61,1.89.77.02,1.27.2,1.52.55-.17.96-3,1-3.3.09l-.64-.3c-1.15,0-1.67-.39-1.54-1.17-11.17.68-22.32,1.53-33.47,2.55-.08-.36-.3-.34-.67.04-7.53.36-15.05.85-22.57,1.46l-.47-.56c-.74.42-1.18.47-1.32.17-.72-.16-1.39-.12-2,.12l-.31.62c-19.75,1.14-39.5,2.57-59.25,4.31l-3.02.83-.97-.26c-.51.3-.68.12-.33-.36.57-.45,1.24-.47,1.84-.69l.4-.77c2.35-.49,4.71-.83,7.08-1.04,22.71-1.79,45.43-3.34,68.16-4.65l3.96.18c.62-.04,1.27.04,1.78-.39.72-.45,1.9-.19,2.77-.21l5.11-.1,3.07-.26,5.14-.33,3.62-.31,3.94-.3,3.62-.3,4.26-.25,6.62-.56c.8-.07,1.3-.22,1.86-.24l3.3-.08Z"/>
      <path class="cls-100" d="M448.08,108.01c-1.04-.29-2.18.13-3.29.22l-3.66.28-3.93.29-5.15.31h-18.46s-4.85-.31-4.85-.31l-3.61-.3-9.22-1-4.12-.7c0-2.99.23-6.15.62-9.15,0-.03.14.17.31.42,18.13,1.71,36.32,3.04,54.59,4.01l1.6-.16-.45,5.14c.19.63.07.95-.37.95Z"/>
      <path class="cls-100" d="M393.29,80.74l.3.14-1.15,16.92c.46.25.39.42-.16.51-.14,2.88-.41,5.71-.81,8.49l-6.76-1.65c1.67-.46,3.24-.07,4.69-1.14-3.19-1.11-6.56-.32-8.82-1.17.38-6.01.78-12.02,1.23-18.01l.33-.16c.11-.99-.1-2.05.08-3.16l2.89-.45,3.08-.25,5.12-.07Z"/>
      <path class="cls-16" d="M381.71,84.03c-.22,6.2-.63,12.41-1.21,18.64l-.21.18c-.63.56-1.64.36-2.12-.32-.21-.29-.61-.67-.6-1.21l.05-4.23.31-4.24.29-3.66.23-4.82c.4-.3.24-1.13.51-1.62.54-.97,1.82-1.05,2.81-1.32-.03.85.26,1.9-.05,2.6Z"/>
      <path class="cls-137" d="M458.06,86.44l8.18,1.58.6.27c.06.43.08,4.64-.03,4.86s-.37.33-.61.42l-9.78-.21c.21-1.2.3-2.23-.18-2.93l-.02-4.27c.79.12-.01,1.82.5,3.4l.11-3.34,1.23.23Z"/>
      <path class="cls-167" d="M465.33,99.78c1.07.14.72,2.41-.38,2.46.11.42.37.86.78,1.32.16,1.05-.07,1.72-.69,2.01l-9.41,1.46c-.01-.43.11-.83.13-1.17-.11-.02-.19-.05-.21-.1-.23-.7.43-5.5.7-6.55.43-.56,1.02-.2,1.63-.15l7.46.71Z"/>
      <path class="cls-126" d="M382.13,84.67l-.3,2.71-.27,3.95-.3,4.24-.38,4.56c-.07.88.31,2-.31,2.71h-.29s.25-3.01.25-3.01l.28-3.95.29-4.24.36-4.23c.1-1.22-.21-2.34.24-3.38.06.29.15.54.42.65Z"/>
      <path class="cls-172" d="M460.5,86.17l8.88,2.05,5.02,1.62c1.81.58.23,2.4.67,5.12l3.92,1.2c.83.25,1.32,1.57.61,2.1-2.57,1.9-5.21-.12-5.15,3.08l.04,1.94c-.24.66-1.06.88-1.9,1.1-6.35,1.66-12.68,2.78-19.23,3.43l-13.73,1.36-3.64.25-4.95.26-16.25.05-4.55-.32-5.06-.34c-6.71-.44-13.3-1.37-19.76-3.19-1.44-.41-2.15-.32-3.54.08l-13.67,3.85-5.79,1.49c-.41.11-.64.43-.57.74.14.63,1.51.34,2.09,1.1h-.3s-2.51-.59-2.51-.59l-2.92,3.31c-.37.44-.58.32-.39-.23l-.28-.6,4.58-5.26c-1.29.27-2.19.12-2.69-.46-.63.09-.95-.04-.94-.38.05-.24.12-.6.3-.63.6-.1,5.35-.51,5.58-.34.51.26.63.77.36,1.51l10.9-3.03c1.54-.1,2.1-.36,1.67-.78-.82.15-1.26,0-1.3-.45v-.4c2.08-.36,4.25-.56,6.51-.6l-.66-.48c-2.58-.25-5.34-.24-7.91.02-.25.63-.98.83-2.16.6-.95.19-1.54-.01-1.77-.61l-.75.61c-.33-.48-.71-.67-1.01-.17-.12.21-.2.19-.27-.05-.95.25-1.16-.14-.39-.7l.61-.29c2.95-.61,6-.81,9.16-.61l.53.3c-.27-.45-.18-.59.3-.31.65-.21,1.53-.01,2.12.32.08-.27.18-.26.29,0l.57-.45c1.9.27,3.82.43,5.76.47,2.7.38,4.33,1.37,1.01,2.44l3.26.81.28.69c.1-.27.2-.27.31,0l.36-.55c18.34,3.08,37.26,2.81,55.72,1.1l.22.67c.04-.65.44-.74,1.22-.26l.27-.64,5.19-.61.6-.67c.07-.58.29-.55.41.04l.55.44,8.2-1.27.53.53.28-.69,7.87-1.93c.25-.75.35-1.6.3-2.56-2.53-.13-5.1-.13-7.71-.01l-.44-.6c-.09.23-.22.57-.41.57-2.68-.04-6.14-.52-8.68-1.13-.07.26-.17.25-.29-.01-.98-.08-3.36-.94-4.12-1.59-2.85-2.42,1.31-4.56,3.66-4.57l.14-2.24.62-.39c.88.16,1.18.91.89,2.27,2.87.14,5.75.23,8.64.26l.43.61.37-.55,7.22,1.15c.15-.09.64-3.31.48-3.35-2.12-.52-4.73-1.2-6.76-1.91-.5-.17-.91-.52-1.28-.88-.11.22-.27.55-.46.53-1.57-.15-4.09-.7-5.66-1.09-1.16,0-1.84-.34-2.06-1.01-.55-.09-.53-.32.03-.43l2.4.16Z"/>
      <path class="cls-12" d="M373.92,103.74c2.59-.27,5.31-.25,7.91-.02,1.85,0,3.71,0,5.76.44l-8.19.85-3.41.2c-1.94.69-4.5.81-6.61.43-.09-.76.15-1.41.61-1.9h3.94Z"/>
      <path class="cls-61" d="M477.69,98.53c-2.71.7-7.56.94-10.64.8l-4.92-.22c-3.34-.51-10.55-1.21-10.1-3.35.38-1.78,7.08-2.16,10.73-1.87,4.77.38,9.42.71,14.04,2.02,1.06.3,2.06.67,2.9,1.39-.48.92-1.23,1.02-2.01,1.22Z"/>
      <path class="cls-109" d="M465.04,105.57l.09-2.22c-.83-.02-1.24.47-1.95.3.34-.23,1.25-.28,1.26-.88,0-.32-.63-.31-.77-.21-.15.11-.53-.24-.37-.68.59-.22,1.27-.22,2-.28l.03-1.83,8.8-.15-.17,3.75-8.92,2.19Z"/>
      <path class="cls-58" d="M466.21,93.57l.03-5.55c2.82.54,5.62,1.34,8.43,2.43.17,1.62-.04,3.09-.33,4.41l-8.13-1.29Z"/>
      <path class="cls-10" d="M381.84,103.73l-7.91.02c.03-.2.26-.32.59-.32h6.7c.32,0,.53.13.62.3Z"/>
      <path class="cls-56" d="M456.23,86.16c.18,1.04.26,2.12.24,3.24.68.26.47.82-.21,1.03l-.12,3.17c-2.15.14-4.5.91-4.62,2.17-.2,2.21,4.11,2.03,4.44,3.43.03,2.23-.18,4.44-.6,6.63.09.29.06,1.2-.29,1.24l-5.77.68c-.7.18-.99.05-.87-.38.3-1.86.39-3.66.27-5.42.92-5.32,1.01-11.08.84-16.53l.37-.2,6.32.92Z"/>
      <path class="cls-91" d="M455.76,105.87l-.41-.04c-.2-.67.23-1.84.3-2.67.11-1.44-.28-2.78.31-3.96h.29c.1.8-.15,1.59-.21,2.5l-.28,4.16Z"/>
      <rect class="cls-83" x="452.15" y="89.57" width=".91" height="2.25" transform="translate(317.72 532.16) rotate(-84.34)"/>
      <path class="cls-100" d="M448.99,85c.53,1.19.87,2.55.29,3.93l-.04,6.93-.28,2.43c-.14,1.2-.06,2.37-.37,3.59-1.12.2-2.12-.2-3.27-.22l-3.59-.07-4.87-.32-5.16-.32-4.82-.32-4.26-.28-4.52-.32-3.93-.3-3.94-.3-3.63-.3-3.95-.29-3.33-.3-3.64-.28-2.99-.27.02-3.01.33-4.24.3-3.95.27-3.65.28-2.4,6.33.08c1.21.02,2.41.17,3.65.23l4.81.25,5.16.29,4.26.28,3.93.3,4.23.34,14.11,1.4,8.6,1.1Z"/>
      <path class="cls-121" d="M393.91,80.73l.56.39c-.57,5.41-.96,10.84-1.15,16.28,18.17,1.66,36.49,2.87,54.71,3.93.51-4.9.8-9.79.86-14.68-.36-.74-.33-1.29.09-1.65l.92.23-.08,6.71-.3,4.84-.3,3.94-.27,3.67c-.13,1.8-.81,3.42.34,3.36-.34.04-.75.4-1.22.26.38-1.68.38-3.7.56-5.85-2.02.29-3.98-.05-5.98-.17l-4.84-.3-4.84-.31-5.15-.3-4.26-.28-4.82-.33-3.96-.29-3.93-.3-3.93-.3-3.63-.31-3.33-.32-3.38-.28-4.15-.54-.31,4.67c-.09,1.41-.04,2.7-.35,3.99-.09-.02-.23,0-.31,0-.24-1.2.14-2.4.25-3.65l.3-3.34.29-3.95.3-3.94.31-4.24.29-3.66.07-3.3h.61Z"/>
      <path class="cls-70" d="M394.71,96.58c0,.33-.27.43-.37.42-.16,0-.5-.21-.48-.52l.16-2.37c.01-.19.75-.25.74-.04l-.05,2.51Z"/>
      <rect class="cls-95" x="445.24" y="99.25" width="2.93" height=".83" transform="translate(317.33 538.69) rotate(-86.16)"/>
      <path class="cls-81" d="M424.67,96.77c.18.33.22,2.82-.65,2.92-.4-1.03-.21-2.04.01-3.06.37-.15.55,0,.63.14Z"/>
      <rect class="cls-99" x="414.58" y="97.16" width="2.77" height=".83" transform="translate(293.51 506.91) rotate(-86.55)"/>
      <path class="cls-87" d="M231.68,112.82l.15.77c-5.09,8.87,10.31,12.68,16.53,13.81.2.57.48.63.86.15,17.49,2.65,34.92,3.51,52.53,3.4l.36.61.64-.61,12.61-.25.45.59c.82.11,1.62.21,2.41.3-.01.19-.25.33-.58.33l-10.16.11-16.94-.02-9.99-.28-4.69-.21-4.24-.31-3.89-.32-8.22-.83-8.51-1.14-6.99-.06-71.33-.02,1.83,5.89c-.86.17-1.66.14-2.62,0l-4.16-6.15c-38.33.13-76.64.12-114.95-.03l-4.84.04c-.8-.08-.78-.3-.01-.57l.06-.4c64.3.04,128.88.04,193.76.01-5.35-1.41-14.56-5.94-12.52-12.66.29-.96.68-2.07,1.78-2.21.01-.59.25-.56.37.04.11-.26.21-.25.31.02Z"/>
      <path class="cls-6" d="M167.72,128.59l-114.56.28c-.33-.03-.38-.19-.39-.31l114.95.03Z"/>
      <path class="cls-134" d="M320.05,131.28c.34,0,.73-.06.9.32l-2.73-.02c-.8,0-1.75.24-2.41-.3.03-.23.09-.56.26-.61.71-.18,3.77-.24,3.98.6Z"/>
      <path class="cls-13" d="M173.9,134.28c-.62.13-1.02.08-1.61.05l-3.9-5.45,3.83-.02,1.68,5.42Z"/>
      <path class="cls-4" d="M12.82,112.78c.18.14.33.29.34.44.14,2.47-.33,5.63-.85,8.06-.03.14-.2.25-.41.35-4.29-1.55-10.18-4.55-11.14-8.85h12.06Z"/>
      <path class="cls-100" d="M231,112.76c-.93,1.44-1.7,3.03-1.46,4.91.52,2.23,1.95,3.95,3.76,5.34,3.93,2.99,8.55,4.04,13.2,5.23l-196.06.03-2.53-.25-3.92-.29-3.67-.28c-9.55-.73-18.89-2.4-27.81-5.52l-.28-.3.92-6.78c-.09-.84,0-1.53.28-2.08,0-.24.06-.6.21-.61,22.08-.21,45.12-.06,67.14.19,49.9-.23,99.85-.3,149.85-.2l.38.61Z"/>
      <path class="cls-36" d="M13.42,112.77c.21,1.4-.07,2.79-.28,4.28l-.64,4.88-.61-.3c.9-2.87,1.03-5.87.92-8.85h.61Z"/>
      <path class="cls-197" d="M227.53,116.7c-.93.5-2.23.45-3.04,0-.67-.36-.68-1.24-.31-1.78.52-.75,2.81-.78,3.53-.11.42.39.62,1.46-.18,1.88Z"/>
      <path class="cls-79" d="M180.32,122.54c.65.31.52,1.18.28,1.48-.51.65-2.77.6-3.2,0-.22-.3-.28-1.13.2-1.41.7-.42,1.89-.47,2.72-.07Z"/>
      <path class="cls-199" d="M80.02,114.92l-12.57.03c-.1,0-.2-.17-.17-.26l12.31-.09c.32-.64.99-.11.43.32Z"/>
      <circle class="cls-93" cx="124.52" cy="117.78" r=".59"/>
      <path class="cls-184" d="M471.39,113.13c.09-.26.19-.26.3,0,.18,0,.45-.09.66.13-21.54,6.13-49.88,13.26-72.08,14.76l-4.57.31-4.21.23-4.26.28-36.02-.06c1.07-.59,2.95-.67,4.19-.61l6.01-.58c20.49.31,40.16.43,60.96-3.61,15.47-2.63,30.69-6.51,45.8-10.67,1.14-.31,2.22-.36,3.23-.17Z"/>
      <path class="cls-189" d="M471.39,113.13c-.53,0-.94.1-1.59.28-22.78,6.5-46.95,12.23-70.52,14.12l-4.76.38c-1.87.15-3.6-.13-5.47.39l-33.66-.15c5.35-1,12.66-2.38,16.79-5.56,1.71-1.31,1.93-3.61.53-5.25-1.76-2.06-7.04-4.25-8.47-4.23.02-.09.04-.24.39-.35h106.09c.48,0,.6.19.67.36Z"/>
      <path class="cls-59" d="M395.72,122.98c-.8.51-2.3.64-2.91,0-.38-1.19-.39-2.8-.06-4.12.2-.8,2.49-.93,2.81-.21.59,1.3.24,2.77.15,4.33Z"/>
      <path class="cls-148" d="M442.27,118.99c.59-.11.8-.42.95-.61.19-.24-.03-1.34-.38-1.27l-7.23,1.43c-.33.07-.3,1.2-.26,1.53-.43-.25-.6-.86-.47-1.21.17-.46.58-.76,1.14-.87l6.33-1.27c.82-.16,1.31.48,1.46,1.15.14.61-.33,1.2-1.12,1.36l-6.92,1.39c-.1.02-.42-.32-.38-.42.05-.11.4-.06.59-.1l6.29-1.12Z"/>
      <path class="cls-1" d="M364.24,113.12c2.8-.53,8.14,2.15,9.46,4.6,3.92,7.22-13.68,10.57-18.31,10.44-.76.6-2.01.32-4.19.61l-10.27,1.37-3.34.31-3.32.31-3.95.28-5.75.3-3.63.26-.9-.32c-.16-.26-.27-.63-.07-.76.41-.27,4.24-.48,4.31.45-.03-.35.27-.39.89-.11l1.22-.2.31-.62c9.19-.34,18.29-1.45,27.35-2.88l.51.53c.1-.27.2-.25.3.03-.03-.36.04-.58.21-.67,4.99-.92,26.26-4.96,13.46-11.27l-4.39-1.8-.52-.86h.3c.08-.27.19-.27.31,0Z"/>
      <path class="cls-29" d="M242.87,113.05c-.23.48-1.26.71-1.84.69l-.05.32c-4.09,2.82,1.66,4.63,4.03,5.35,1.42.15,2.62.55,3.59,1.19.2,2.25.26,4.57.19,6.95-.09-2.36-.04-4.67.15-6.94,18.78,3.1,37.2,2.78,55.75,1.6l.2.34c.19,2.07.25,4.23.19,6.48-.99-.12-1.75.22-2.37,1.02.87.44.23,1.45-.6,1.51l-15.51-.15-7.27-.29-4.39-.21-4.25-.31-3.33-.29-11.68-1.28c-7.77-.85-19.19-2.65-24.07-8.28-2.1-2.43-1.98-5.68.05-7.94-.1-.53.13-.58.36-.06.45-.28.9-.5,1.44-.61.76-.16,9.02-.13,9.42.14.18.12.09.5-.02.76Z"/>
      <path class="cls-123" d="M324.29,130.98h-3.66c-.32-.01-.55.11-.58.3h-4.24s-4.99.15-4.99.15l-8.7.12.6-1.51c.54-.67,1.2-1.11,2.1-1.02.14-.58.29-.57.46,0h16.37c.24-.65.54-.68.7-.02,1.15-.09,2.6,1.05,1.96,1.97Z"/>
      <path class="cls-100" d="M354.54,115.84l.33.77c.1,3.73,0,7.43-.3,11.08l-4.13.7-11.63,1.42-3.89.36-3.39.25-5.13.24c-.86.28-2,.5-2.07-.57-.56-.86-1.45-1.24-2.66-1.16l.34-.36c-.08-2.69-.03-5.33.15-7.93.23-.29,2.25-.9,2.38-.86,2.29,1.63,4.51,3.37,6.66,5.2,1.67.38,3.42.43,5.23.16l3.52-5.93c.34-.43.71-.67,1.2-.4,2.18,1.59,4.79,2.1,7.84,1.52,1.3-1.79,2.69-3.55,4.17-5.3.68-.4,1.42.12,1.37.79Z"/>
      <path class="cls-100" d="M363.63,113.13c2.6,1.04,5.23,1.88,7.66,3.52,1.76,1.18,2.59,3.8.87,5.31-2.02,1.77-4.55,2.88-7.14,3.46l-10.16,2.31c-.04-3.68-.04-7.39,0-11.12l.33-.2c.2-.13.52-.04.97.28.7.02,1.37-.26,2.03-.84.8-1.4,1.88-2.69,3.25-3.86.63.48,1.35.86,2.19,1.14Z"/>
      <path class="cls-113" d="M326.4,130.67c-.55.51-1.4.31-2.1.31.11-.9-.58-1.55-1.6-1.81l-18.34.03c-.64,0-1.17.68-1.64.85.33-.86,1.01-1.26,2.21-1.18l-.02-6.32c.09-.26.2-.27.34-.03l.6.34v5.39c5.13.04,10.28.03,15.42-.03v-7.14s.59-.44.59-.44c.1-.26.2-.25.32,0v8.21c1.31-.08,2.32.49,2.49,1.73.65.26,1.24.1,1.74.08Z"/>
      <path class="cls-158" d="M355.2,116.41v7.33c-.39,1.36-.41,2.68-.33,3.99-.07-.01-.23-.04-.3-.03l-.04-11.85c.21-.39.8.17.67.57Z"/>
      <path class="cls-42" d="M248.61,120.6h.33s-.03,6.91-.03,6.91c0,.13-.15.22-.23.2l-.07-7.11Z"/>
      <path class="cls-100" d="M358.49,108.92l-10.32.82.71,1.29c-1.22-.15-2.14.02-3.23.13l-13.05,1.25,1.11,1.1-14.91,1.55,5.26,4.81-12.49,1.48-3.92.34-3.92.3-4.58.27-4.81.24-4.23.28-17.4-.11-6.11-.28c-6.22-.29-12.26-1.19-18.25-2.34-.38-.38-.11-.6.79-.65,3.97-.36,7.86-.88,11.68-1.56l3.69-.02.64-.4,4.57.87c12.13.08,24.25-.26,36.37-1.03l-6.01-.17c-4.48-.25-8.99-.46-13.53-.64l-.68-.58c-.14-.16-.02-.43.35-.79l3.09-.08c14.16-1.57,28.34-3.17,42.55-4.79.29-.29.75-.35,1.38-.19,11.55-1.43,23-2.68,34.37-3.73l3.3-.09c.03-.15.06-.27.11-.28,1.99-.31,4.28-.36,6.28-.24.94-.25,2.14-.13,3.32.02l-17.37,4.82,1.22-2-5.98.41Z"/>
      <path class="cls-13" d="M357.81,115.62c-.39.45-1.28,1.28-1.91.72l-6.9-6.16,4.35-.31,3.63-.31,2.45-.25,4.17-.32-5.79,6.64Z"/>
      <path class="cls-185" d="M375.99,105.22c.35.27.84.47,1.3.45-.95.26-1.92.09-3.09.21l-3.3.32-1.52-.55c2.17.06,4.54-.17,6.61-.43Z"/>
      <path class="cls-128" d="M367.96,104.14c.1-.04.22.01.27.05.23-.14.84-.2.84.04l.04,1.21c-.85.27-1.97.24-2.84-.41.57-.61,1.14-.65,1.69-.88Z"/>
      <path class="cls-100" d="M321.85,120.64v8.22s-16.63,0-16.63,0v-6.35c.77-.58,2.03-.24,2.98-.33l3.63-.36,10.01-1.18Z"/>
      <path class="cls-30" d="M304.92,108.6c.78-.25,1.6-.28,2.48-.1-1.36,1.64-.29,3.21,1.28,4.14,0,0-7.38.84-22.13,2.51-.44.34-.88.48-1.33.42-.38.3-.81.53-1.29.59-2.19.29-9.04-.72-11-1.73-.61-.31-1.06-1.01-1.31-1.63-2.73.6-5.02,1.77-6.85,3.53,0,.58-.08,1.08-.27,1.5-2.18.26-4.55.12-6.2-1.35-.19.02-.3.12-.32.3.11-.06.21-.1.29-.07.33.1,2.63.85,2.67.99.03.1-.04.23-.15.36l-11.59,1.34c-.72.3-1.34.31-1.85.02-2.62.3-8.96-2.36-7.31-4.23.41-.46.91-.89,1.33-1.08,2.61-1.16,5.45-1.49,8.38-1.72l3.09-.23,4.55-.31,3.93-.31,4.26-.28,4.83-.32,3.93-.3,3.93-.3,4.57-.28,2.63-.17,6.39-.49,4.27-.26,3.96-.28,4.83-.24Z"/>
      <path class="cls-138" d="M366.96,105.98c-19.1,2.4-38.28,4.65-57.56,6.75-1.34-.11-2.9-1.58-2.59-3.1.19-.92.49-1.2,1.44-1.31l2.71-.3,4.26-.31,2.97-.06c1.18-.31,2.2-.2,3.39-.27l10.7-.62,2.6-.37,3.93-.29,4.24-.3,3.93-.31,4.26-.28,5.34-.36,10.1-.71c-.53.34-.81.87-.63,1.23.12.25.6.4.9.64Z"/>
      <path class="cls-108" d="M367.59,106.28l-52.85,6.06-27.76,3.08c-.49.05-.93.16-1.14.44-.53.68-.82.54-.63-.3.26-.29.62-.32.94-.48-1-.47-2.05-.78-2.1-2.12,1.49,2.1,3.31,2.07,5.49,1.82l18.8-2.11c-1.52-1.04-2.42-2.46-1.33-3.99-.69-.29-1.43-.13-2.1-.1.03-.21.25-.33.57-.33l2.75.04c-.59.39-1.14.83-1.24,1.36-.18.99.28,1.44.8,2.04.76.87,1.42.89,2.55.77l21.79-2.48c-.36-.41-.76-.85-.86-1.34-.08-.42.13-.99.54-1.31-.04.92-.07,1.73.43,2.18.55.49,1.21.25,1.96.16l32.72-3.7c.19-.02.56-.26.64.3Z"/>
      <path class="cls-42" d="M264.48,117.82l-14.93,1.71c-.58.07-1.03.1-1.23.51-.37-.07-.69-.18-.98-.64l13.41-1.56c-1.03-.31-1.91-.52-2.79-1.08-.35-.44-.2-.47.32-.3,1.9.98,3.92,1.47,6.2,1.35Z"/>
      <path class="cls-67" d="M258.28,116.47l-.32.3c-.69-.44-1.83-.81-1.71-1.84.74.77,1.35,1.19,2.03,1.54Z"/>
      <path class="cls-14" d="M358.49,108.92c.17.29.58.34.94.38l-.26.64-8.69.75,5.85,5.23c.56-.36,1.05-.46,1.48-.3l.39.23c-.39.44-.75,1.08-1.43,1.12-.49.03-1.18-.24-1.56-.56l-.67-.57c-.18-.15-.47-.58-.81-.54l-4.5,5.56c-3.61.21-5.95.76-8.53-1.71l-3.93,6.61c-1.78-.1-4.13.59-5.88-.25l-6.17-4.97c-.68-.55-1.88.13-2.57.11h-.32c-.04.23-.1.6-.28.63-3.82.68-9.61,1.4-13.46,1.51-1.07.13-2.03.03-2.88-.28-.08,0-.26.05-.34.03-1.5-.28-3.19.12-4.79.21l-4.88.27-7.13.21-13.91.02-6.41-.27c-6.41-.27-12.67-1.08-18.84-2.38-.11.26-.22.25-.33-.01-3.21-.85-10.07-2.33-9.33-4.99.24-.88,1.19-1.41,1.76-1.86l.33.36c0,.53-.33,1.1-1,1.7,1.16,1.54,2.84,2.49,5.02,2.84.91,0,1.56.26,1.97.77.64.06.97.27.98.64l1.06-.16c24.55,3.6,49.05,2.62,73.26-.47l-4.18-3.86c-.15-.5.09-.86.52-1.14l13.31-1.38c-.19-.5.02-.93.43-1.25l14.99-1.42c-.1-.59.15-.89.59-1.25.38-.31,8.6-.76,9.76-.78l.4.58Z"/>
      <path class="cls-100" d="M330.34,114.32c.47.24.7.86.7,1.86-.3-.87-.28-1.48.07-1.85.87,0,2.2-.55,3.07-.21l6.21,4.71-3.91,6.43-5.52-.05-11.13-9.72,10.51-1.17Z"/>
      <path class="cls-154" d="M348.19,120.43c-.51-.56-1.4-.74-2.68-.55-.88.06-1.29-.24-1.22-.9-.18-2.27-.58-4.54-1.19-6.8l.25-.25,6.26-.58,3.83,3.52-3.68,4.64c-.5.63-.81.92-1.57.91Z"/>
      <path class="cls-56" d="M341.54,112.22c.38-.18,1.27-.29,1.6-.11.31.16,1.12,6.12,1.15,6.87,2.61,1.1,4.32-.39,3.9,1.45l-5.11-.06-9.31-7.39,4.41-.51c1.21-.14,2.26-.33,3.37-.24Z"/>
      <path class="cls-62" d="M343.35,111.93l1.22,6.61c.04.2-.15.38-.28.44l-1.3-6.69c-.56-.2-1.03-.03-1.45-.07.44-.56,1.23-.24,1.8-.29Z"/>
      <path class="cls-88" d="M331.11,114.32l.25,2.13c.41-.38,1.7-.52,2.11-.11l1.55,7.49c-.8.32-1.64.27-2.52.09l-2.16-9.62h.77Z"/>
      <path class="cls-100" d="M334.67,123.56c-.7.29-1.24.23-1.87.08l-1.22-6.61c-.09-.48.99-.8,1.66-.56l1.44,7.09Z"/>
      <path class="cls-177" d="M285.22,115.57c.16.1.44.32.63.3,1.78-.14,3.53.22,5.42.25l5.74.1,3.06.25,11.63.21c-3.34,1.24-6.65,1.25-9.99,1.44l-5.12.29-6.99.29-20,.18c-1.89-.5-3.66-.43-5.12-1.07-2.06-2.6,3.67-4.6,7.51-5.78.33,1.28.98,1.95,2.16,2.24,3.63.88,7.47,1.3,11.06,1.29Z"/>
      <path class="cls-155" d="M306.09,117.36l-4.2.25-4.55.29-5.6.21-9.66.29c-3.32.1-6.66.25-9.97,0-2.79-.21-6.97-.36-7.64-1.62-.54-1,4.28-3.42,7.22-4.1.49,1.39,1.54,2.11,2.92,2.3l5.77.8,3.02.29,3.64.31,5.31.2,11.92.21c.62.1,1.24.04,1.81.55Z"/>
      <path class="cls-153" d="M275.32,86.29l.06,10.81c0,.78-.59,1.67-1.38,1.73-1.57.1-3.16.21-4.68-.09-.96-.19-1.3-1.38-1.3-2.24l-.02-10.32,7.32.12Z"/>
      <path class="cls-179" d="M273.98,93.32c-.07,1.06-1.32,1.29-1.92,1.36-.87.1-2.12.02-2.4-1.08-.33-1.28-.23-2.92-.02-4.31.13-.89,1.49-1.17,2.17-1.24.63-.07,2.03.43,2.14,1.14.22,1.34.13,2.67.04,4.13Z"/>
      <path class="cls-135" d="M273.59,93.32c-.16.75-1.28,1.05-1.82,1.05s-1.66-.3-1.82-1.05c-.25-1.18-.38-2.73.1-3.95.44-1.13,3-1.13,3.44,0,.48,1.23.35,2.77.1,3.95Z"/>
      <path class="cls-5" d="M292.78,85.54c-.19.22-.47.32-.85.32l-5.79.03c-.33,0-.4-.47-.31-.63.26-.57.8-1.14,1.58-1.13l4.07.07c.83.01,1.21.74,1.31,1.34Z"/>
      <path class="cls-141" d="M292.78,85.54c.07.45.54.63.92.78l-.16,11.21c-.04,2.76-3.38,1.82-5.6,2.09-1.55.19-3-.91-3-2.52v-11.01c.51.11.73-.38.89-.83,1.91.05,4.04.04,6.4-.04l.55.32Z"/>
      <path class="cls-127" d="M293.01,97.03c.02,2.11-3.34,2.24-6.14,1.7-.98-.19-1.28-1.39-1.28-2.24l-.05-10.31h7.39s.09,10.85.09,10.85Z"/>
      <path class="cls-92" d="M291.25,93.92c-.84,1.29-3.56,1.11-4.01-.27-.41-1.26-.29-2.8-.07-4.13s2.45-1.83,3.71-.88,1.43,3.66.37,5.28Z"/>
      <path class="cls-89" d="M290.71,88.84c.76.55,1.11,4.43-.2,5.19-.75.44-1.62.44-2.37,0-1.27-.74-.96-4.43-.31-5.01s2.21-.66,2.88-.18Z"/>
    </g>
  </g>
</svg>