<?xml version="1.0" standalone="no"?>
<!DOCTYPE svg PUBLIC "-//W3C//DTD SVG 20010904//EN"
 "http://www.w3.org/TR/2001/REC-SVG-20010904/DTD/svg10.dtd">
<svg version="1.0" xmlns="http://www.w3.org/2000/svg"
 width="600.000000pt" height="378.000000pt" viewBox="0 0 600.000000 378.000000"
 preserveAspectRatio="xMidYMid meet">
<g transform="translate(0.000000,378.000000) scale(0.100000,-0.100000)"
fill="#53565b" stroke="none">
<path d="M624 2555 c-146 -32 -297 -129 -394 -254 -33 -42 -60 -78 -60 -81 0
-3 84 -6 188 -5 182 0 188 -1 244 -27 153 -72 170 -302 27 -390 -27 -17 -49
-33 -49 -35 0 -3 38 -58 84 -123 46 -65 82 -121 78 -124 -3 -3 -43 -6 -89 -6
l-84 0 -75 115 -75 115 -62 0 -62 0 3 -110 4 -110 -51 0 c-68 0 -66 -7 37
-110 141 -141 294 -205 487 -204 209 1 394 87 526 246 l52 63 -51 3 -52 3 0
140 0 139 -140 0 -140 0 0 -145 0 -146 -77 3 -78 3 0 352 0 353 78 0 77 0 0
-140 0 -140 140 0 140 0 0 141 0 142 60 -6 c71 -8 73 -3 24 64 -164 224 -444
332 -710 274z"/>
<path d="M2351 2226 c-68 -162 -123 -299 -122 -303 1 -4 25 -8 53 -8 l53 0 29
73 30 72 127 0 126 0 28 -75 27 -75 59 0 c32 0 59 1 59 3 0 1 -56 138 -124
302 l-125 300 -49 3 -49 3 -122 -295z m212 41 c20 -50 37 -95 37 -99 0 -5 -38
-8 -84 -8 l-83 0 40 100 c23 55 44 100 47 100 3 0 22 -42 43 -93z"/>
<path d="M3813 2509 c-77 -23 -132 -121 -114 -202 18 -79 56 -108 190 -145 88
-25 111 -43 111 -88 0 -82 -134 -82 -245 0 -19 14 -22 12 -54 -26 l-35 -41 30
-23 c88 -71 233 -96 319 -54 65 32 95 79 95 153 0 103 -42 144 -190 187 -95
28 -115 46 -111 103 3 50 124 54 192 6 37 -26 43 -25 74 23 27 40 27 42 9 56
-64 49 -197 74 -271 51z"/>
<path d="M4285 2506 c-72 -27 -125 -117 -111 -190 15 -80 62 -117 195 -154 84
-24 111 -44 111 -81 -1 -85 -115 -95 -226 -20 l-41 28 -33 -41 -33 -41 29 -24
c88 -70 233 -95 318 -53 63 30 89 70 94 144 8 107 -31 148 -186 195 -99 31
-130 59 -113 103 20 54 108 57 189 8 44 -27 45 -26 77 22 27 40 27 42 9 56
-69 53 -203 76 -279 48z"/>
<path d="M4843 2503 c-114 -40 -188 -154 -187 -288 0 -396 562 -415 582 -20
12 230 -185 383 -395 308z m209 -125 c93 -71 103 -226 19 -309 -81 -81 -205
-68 -271 28 -39 57 -37 184 4 237 63 83 172 102 248 44z"/>
<path d="M1720 2210 l0 -300 55 0 55 0 0 105 0 105 58 0 57 0 68 -105 68 -105
58 0 c32 0 60 3 63 6 4 3 -27 54 -68 112 -67 96 -73 108 -57 117 117 66 146
220 58 306 -51 50 -82 57 -257 58 l-158 1 0 -300z m319 173 c39 -30 42 -99 6
-133 -24 -22 -37 -25 -121 -28 l-94 -4 0 97 0 98 91 -5 c69 -4 97 -10 118 -25z"/>
<path d="M2880 2216 l0 -296 140 0 c115 0 149 4 192 20 227 86 241 428 22 540
-45 23 -62 25 -201 28 l-153 4 0 -296z m300 169 c65 -34 108 -122 96 -198 -18
-110 -78 -157 -208 -165 l-78 -5 0 198 0 198 81 -7 c45 -4 94 -13 109 -21z"/>
<path d="M3482 2213 l3 -298 54 0 54 0 1 298 1 297 -58 0 -57 0 2 -297z"/>
<path d="M5330 2210 l0 -300 55 0 55 0 2 201 3 200 138 -190 c161 -220 154
-213 204 -209 l38 3 3 298 2 297 -57 0 -58 0 4 -192 c3 -161 1 -190 -10 -181
-8 6 -72 93 -144 192 l-130 180 -52 0 -53 1 0 -300z"/>
<path d="M290 1975 l0 -104 103 6 c141 8 171 27 169 105 -2 72 -50 98 -182 98
l-90 0 0 -105z"/>
<path d="M1714 1791 c-2 -2 -4 -8 -4 -13 0 -4 927 -8 2060 -8 1360 0 2060 3
2060 10 0 10 -4106 20 -4116 11z"/>
<path d="M2625 1650 c-179 -26 -234 -268 -84 -367 57 -37 149 -44 206 -15 210
108 111 416 -122 382z m116 -96 c102 -97 17 -270 -114 -233 -62 17 -97 66 -97
137 0 110 133 171 211 96z"/>
<path d="M1719 1648 c0 -2 -1 -91 -2 -198 l-1 -195 37 -3 37 -3 0 85 0 86 90
0 90 0 0 -85 0 -85 35 0 35 0 0 200 0 200 -35 0 -35 0 0 -83 0 -83 -90 -1 -90
0 0 83 0 84 -35 0 c-19 0 -35 -1 -36 -2z"/>
<path d="M3250 1615 l0 -35 65 0 65 0 0 -165 0 -165 35 0 35 0 0 165 0 165 65
0 65 0 0 35 0 35 -165 0 -165 0 0 -35z"/>
<path d="M4040 1450 l0 -200 145 0 145 0 0 35 0 35 -110 0 -110 0 0 50 0 49
98 3 97 3 0 30 0 30 -97 -3 -98 -4 0 51 0 51 110 0 110 0 0 35 0 35 -145 0
-145 0 0 -200z"/>
<path d="M4840 1450 l0 -200 140 0 140 0 0 35 0 35 -105 0 -105 0 0 165 0 165
-35 0 -35 0 0 -200z"/>
<path d="M5614 1640 c-37 -15 -64 -59 -64 -105 0 -56 30 -83 128 -115 72 -23
77 -27 80 -56 6 -56 -55 -69 -136 -28 l-52 26 -20 -24 -19 -23 25 -21 c83 -68
231 -54 271 26 36 71 -4 129 -110 161 -84 25 -97 33 -97 65 0 46 64 57 130 24
l39 -20 17 24 c8 14 13 30 9 37 -21 32 -147 51 -201 29z"/>
</g>
</svg>
