<svg width="500" height="225" xmlns="http://www.w3.org/2000/svg">

 <g>
  <title>Layer 1</title>
  <g stroke="null" id="logo">
   <path stroke="null" fill="#f9a51a" d="m391.73563,220.41147a102.49506,107.68028 0 0 1 -101.68886,-90.94946l-0.439,-2.87719l5.47934,-0.92243l0.439,2.87935a97.44242,102.37202 0 1 0 96.21157,-118.71276a96.66288,101.55305 0 0 0 -69.9534,31.09739l-1.93244,2.0927l-3.98386,-4.05824l1.93244,-2.09485a102.99356,108.204 0 1 1 73.92905,183.53903" data-name="circle outline" id="circle_outline"/>
   <path stroke="null" fill="#f9a51a" d="m443.78425,170.02935l-8.05592,-12.17042l-15.07793,0l0,12.17042l-7.96361,0l0,-34.42071l26.83667,0c7.46717,0 12.3557,4.56256 12.3557,11.26523a9.36473,9.83849 0 0 1 -7.46717,10.36651l8.32671,12.78896l-8.95445,0zm0.22566,-23.39255c0,-2.61426 -1.99193,-4.42032 -5.38498,-4.42032l-17.97454,0l0,9.0346l18.01351,0c3.39305,0 5.33369,-1.7608 5.33369,-4.61428" id="R"/>
   <path stroke="null" fill="#f9a51a" d="m388.30565,135.60864l7.96361,0l0,34.42071l-7.96361,0l0,-34.42071z" id="I"/>
   <path stroke="null" fill="#f9a51a" d="m369.449,170.02935l-3.75615,-7.41604l-20.99833,0l-3.75615,7.41604l-8.05592,0l17.42476,-34.42071l9.81604,0l17.37962,34.42071l-8.05387,0zm-14.30044,-28.14692l-7.19433,14.11872l14.39071,0l-7.19638,-14.11872z" id="A"/>
   <path stroke="null" fill="#b01117" d="m456.78204,108.60614l-10.00887,-14.76312l-18.96332,0l0,14.76097l-7.46101,0l0,-40.16863l30.90053,0c8.14413,0 13.30551,5.02808 13.30551,12.73724a11.0592,11.61869 0 0 1 -9.51243,12.21352l10.32069,15.22003l-8.58109,0zm0.12514,-27.30208c0,-3.98497 -2.29964,-5.74792 -7.21074,-5.74792l-21.88659,0l0,11.16825l22.31944,0c4.47825,0 6.76968,-1.89442 6.76968,-5.42248" data-name="R" id="R-2"/>
   <g stroke="null" data-name="star icon" id="star_icon">
    <path stroke="null" fill="#b01117" d="m392.25669,40.48456l-22.42406,72.51388l22.42612,-17.80196l22.42612,17.80196l-22.42817,-72.51388z" data-name="Path 12" id="Path_12"/>
    <path stroke="null" fill="#f9a51a" d="m392.25669,40.48456l-22.42406,72.51388l22.42612,-17.80196l-0.00205,-54.71192z" data-name="Path 13" id="Path_13"/>
    <path stroke="null" fill="#f9a51a" d="m355.7209,68.49354l24.69088,0l-6.73481,13.47431l-17.95607,-13.47431z" data-name="Path 14" id="Path_14"/>
    <path stroke="null" fill="#f9a51a" d="m410.35431,81.96355l17.95607,-13.47431l-23.72877,0" data-name="Path 15" id="Path_15"/>
   </g>
   <path stroke="null" fill="#b01117" d="m349.22817,75.55398l0,33.05216l-7.46101,0l0,-33.05216l-18.27815,0l0,-7.11216l44.01936,0l0,7.11216l-18.2802,0z" id="T"/>
   <path stroke="null" fill="#b01117" d="m296.32616,67.06465c-9.32575,0 -14.23685,2.48064 -14.23685,6.39879c0,2.1552 1.30675,3.59487 3.91821,4.57549c4.9111,1.82761 12.30852,1.2414 21.44759,2.48064c11.19254,1.50864 16.53854,5.55395 16.53854,13.45492c0,9.92901 -8.58109,15.73296 -24.55754,15.73296c-11.44077,0 -20.26802,-2.54745 -26.79769,-7.97424l4.10284,-5.68111a42.11769,44.24842 0 0 0 22.75434,6.79104c10.69405,0 16.41135,-3.26513 16.41135,-8.36002c0,-6.72854 -7.64769,-6.72854 -20.8896,-7.64234c-13.86554,-0.97846 -20.82806,-3.26728 -20.82806,-12.34499c0,-8.81908 8.08054,-14.37088 22.69075,-14.37088a42.60388,44.7592 0 0 1 24.37907,7.00656l-4.53979,5.29102a43.84704,46.06526 0 0 0 -20.39111,-5.35567" id="S"/>
   <path stroke="null" fill="#b01117" d="m255.79217,108.60614l0,-17.31057l-29.54044,0l0,17.31057l-7.46101,0l0,-40.17078l7.46101,0l0,15.73296l29.54044,0l0,-15.73296l7.46101,0l0,40.17078l-7.46101,0z" id="H"/>
   <path stroke="null" fill="#b01117" d="m194.92861,75.55398l0,33.05216l-7.46101,0l0,-33.05216l-18.27815,0l0,-7.11216l44.01936,0l0,7.11216l-18.2802,0z" data-name="T" id="T-2"/>
   <path stroke="null" fill="#b01117" d="m157.50457,108.60614l-10.00887,-14.76097l-18.96332,0l0,14.76097l-7.47127,0l0,-40.17078l30.90053,0c8.14413,0 13.30551,5.02808 13.30551,12.73724a11.0592,11.61869 0 0 1 -9.51243,12.21352l10.32069,15.22003l-8.57083,0zm0.12514,-27.30208c0,-3.98497 -2.29964,-5.74792 -7.21074,-5.74792l-21.88659,0l0,11.16825l22.32149,0c4.4762,0 6.76968,-1.89442 6.76968,-5.42248" data-name="R" id="R-3"/>
   <path stroke="null" fill="#b01117" d="m106.0283,104.48971a28.86757,30.32798 0 0 1 -17.09858,5.29102a29.51377,31.00687 0 0 1 -17.15807,-5.29102a18.43405,19.36663 0 0 1 0.06154,-32.00473a30.81027,32.36896 0 0 1 34.13152,0a18.43405,19.36663 0 0 1 0.06154,32.00473m-17.09653,-30.30643c-10.38223,0 -17.46989,6.14017 -17.46989,14.23725c0,8.42683 6.83738,14.30407 17.46989,14.30407c10.56891,0 17.3468,-5.87723 17.3468,-14.30407c0,-8.16174 -7.02611,-14.23725 -17.3468,-14.23725" id="O"/>
   <path stroke="null" fill="#b01117" d="m46.90434,108.60398l-34.44333,-38.79361l0,38.79361l-7.46101,0l0,-47.28941l9.26421,0l34.38179,38.79361l0,-38.79361l7.46101,0l0,47.28941l-9.20267,0z" id="N"/>
  </g>
 </g>
</svg>