<svg xmlns="http://www.w3.org/2000/svg" viewBox="-0.53 0.371 161.078 42.483" fill="none">
  <path d="M123.6 39.4763C124.355 39.4763 124.934 40.055 124.934 40.8113C124.933 41.5674 124.355 42.1453 123.6 42.1453C122.844 42.1451 122.267 41.5673 122.267 40.8113C122.267 40.0551 122.844 39.4765 123.6 39.4763ZM123.6 39.699C122.978 39.6992 122.489 40.1886 122.489 40.8113C122.489 41.4339 122.978 41.9234 123.6 41.9236C124.222 41.9236 124.711 41.434 124.711 40.8113C124.711 40.1884 124.222 39.699 123.6 39.699ZM123.733 40.0994C124.044 40.0994 124.222 40.277 124.222 40.5437C124.222 40.7661 124.089 40.8995 123.911 40.9441L124.222 41.5232C124.222 41.5673 124.222 41.5671 124.178 41.5671H124C123.956 41.5671 123.955 41.5673 123.955 41.5232L123.688 40.989H123.422C123.418 40.9891 123.378 40.9908 123.378 41.033V41.5671C123.378 41.6116 123.377 41.6121 123.333 41.6121H123.155V41.5671C123.111 41.5671 123.111 41.5672 123.111 41.5232V40.1433C123.111 40.0992 123.111 40.0994 123.155 40.0994H123.733ZM123.378 40.2771C123.378 40.2771 123.333 40.2775 123.333 40.322V40.6775C123.333 40.6775 123.333 40.7224 123.378 40.7224H123.688C123.866 40.7224 123.955 40.6331 123.955 40.4998C123.955 40.3663 123.866 40.2771 123.688 40.2771H123.378Z" fill="#000000"/>
  <path d="M44.6665 30.801C44.7996 30.8011 44.8438 30.8456 44.8882 30.9788L48.7554 41.968C48.7996 42.0569 48.7548 42.1458 48.6216 42.1458H47.4663C47.333 42.1458 47.2881 42.1014 47.2437 41.968L46.3999 39.5208H41.8218L40.9771 41.968C40.9326 42.1011 40.8441 42.1457 40.7554 42.1458H39.6001C39.5113 42.1458 39.4664 42.0569 39.4663 41.968L43.4214 30.9788C43.4658 30.8898 43.5112 30.801 43.6001 30.801H44.6665ZM42.355 38.1418H45.9556L44.1772 32.9807H44.1333L42.355 38.1418Z" fill="#000000"/>
  <path d="M52.3555 30.979C52.3555 30.89 52.3999 30.801 52.5332 30.801H53.6888C53.7777 30.801 53.8666 30.89 53.8666 30.979V39.6988V41.9677C53.8666 42.0567 53.7777 42.1457 53.6888 42.1457H52.5332C52.4444 42.1457 52.3555 42.1012 52.3555 41.9677V30.979Z" fill="#000000"/>
  <path d="M63.1997 30.801C65.333 30.801 66.7554 32.0916 66.7554 34.0491C66.7552 35.5615 65.9104 36.718 64.5327 37.1184L66.9331 41.8792C67.0217 41.9681 66.9331 42.0569 66.8442 42.0569H65.5112V42.1458C65.378 42.1458 65.333 42.1013 65.2886 41.968L63.022 37.3411H60.5327C60.4884 37.3413 60.4438 37.3856 60.4438 37.4299V41.968C60.4438 42.0569 60.3993 42.1458 60.2661 42.1458H59.1108C59.022 42.1457 58.9332 42.1013 58.9331 41.968V30.9788C58.9333 30.8899 59.022 30.8011 59.1108 30.801H63.1997ZM60.5327 32.2249C60.4884 32.225 60.4438 32.2693 60.4438 32.3137V35.8723C60.4438 35.9167 60.4884 35.962 60.5327 35.9622H63.1997C64.4886 35.9621 65.2886 35.2497 65.2886 34.093C65.2885 32.892 64.4885 32.2249 63.1997 32.2249H60.5327Z" fill="#000000"/>
  <path d="M71.1997 30.979C71.1997 30.89 71.2442 30.801 71.3775 30.801H72.533C72.6219 30.801 72.7108 30.89 72.7108 30.979V40.6776C72.7108 40.7665 72.7553 40.7665 72.7997 40.7665H78.1775C78.2664 40.7665 78.3553 40.811 78.3553 40.9445V42.0122C78.3553 42.1012 78.3108 42.1902 78.1775 42.1902H71.3775C71.2886 42.1902 71.1997 42.1457 71.1997 42.0122V30.979Z" fill="#000000"/>
  <path d="M81.644 30.979C81.644 30.89 81.7329 30.801 81.8218 30.801H82.9774C83.0663 30.801 83.1552 30.89 83.1552 30.979V39.0315V41.9677C83.1552 42.0567 83.0663 42.1457 82.9774 42.1457H81.8218C81.7329 42.1457 81.644 42.1012 81.644 41.9677V30.979Z" fill="#000000"/>
  <path d="M88.2666 30.979C88.2666 30.89 88.311 30.801 88.4444 30.801H89.511C89.6444 30.801 89.7333 30.8455 89.7777 30.979L94.8888 39.4764H94.9333V30.979C94.9333 30.89 95.0222 30.801 95.111 30.801H96.1777C96.2666 30.801 96.3555 30.89 96.3555 30.979V41.9677C96.3555 42.0567 96.2666 42.1457 96.1777 42.1457H95.111C94.9777 42.1457 94.8888 42.1012 94.8444 41.9677L89.6888 33.5149H89.6444V41.9677C89.6444 42.0567 89.5999 42.1457 89.4666 42.1457H88.4444C88.3555 42.1457 88.2666 42.1012 88.2666 41.9677V30.979Z" fill="#000000"/>
  <path d="M101.466 30.979C101.466 30.89 101.555 30.801 101.644 30.801H108.444C108.533 30.801 108.622 30.89 108.622 30.979V32.0467C108.622 32.1357 108.577 32.2247 108.444 32.2247H103.066C103.022 32.2247 102.977 32.2692 102.977 32.3136V35.6503C102.977 35.7393 103.022 35.7393 103.066 35.7393H107.644C107.733 35.7393 107.822 35.8283 107.822 35.9173V36.985C107.822 37.074 107.777 37.1629 107.644 37.1629H103.066C103.022 37.1629 102.977 37.2074 102.977 37.2519V40.7221C102.977 40.811 103.022 40.811 103.066 40.811H108.444C108.533 40.811 108.622 40.8555 108.622 40.989V42.0567C108.622 42.1457 108.577 42.2347 108.444 42.2347H101.644C101.555 42.2347 101.466 42.1902 101.466 42.0567V30.979Z" fill="#000000"/>
  <path d="M112.4 40.9C112.311 40.8555 112.311 40.722 112.4 40.6331L113.111 39.7878C113.2 39.6988 113.244 39.6988 113.333 39.7878C114.044 40.3661 115.2 40.9445 116.489 40.9445C118.044 40.9445 118.977 40.1437 118.977 39.0315C118.977 38.0527 118.444 37.4299 116.622 37.1629L116.044 37.0739C113.866 36.7625 112.711 35.7393 112.711 33.9597C112.711 31.9577 114.177 30.623 116.4 30.623C117.733 30.623 119.022 31.0679 119.866 31.6908C119.955 31.7353 119.955 31.8242 119.911 31.9132L119.333 32.8475C119.244 32.9365 119.2 32.9365 119.111 32.892C118.177 32.3136 117.333 32.0467 116.4 32.0467C115.022 32.0467 114.266 32.803 114.266 33.8707C114.266 34.805 114.889 35.4723 116.666 35.6948L117.2 35.7838C119.422 36.0952 120.533 37.1184 120.533 38.9425C120.533 40.9445 119.155 42.3681 116.4 42.3681C114.755 42.3236 113.2 41.6563 112.4 40.9Z" fill="#000000"/>
  <path d="M19.2889 0.81543V21.2803C19.2889 22.1701 19.2889 23.4603 18.0444 23.4603H14.6222V14.2066H4.62222V21.2803C4.62222 22.1701 4.66667 23.4603 3.46667 23.4603H0V2.99539C0 2.10561 0 0.81543 1.24444 0.81543H4.66667V10.5585H14.6667V3.03988C14.6667 2.1501 14.6222 0.859919 15.8222 0.859919H19.2889V0.81543Z" fill="#000000"/>
  <path d="M44.0005 22.7041C44.1781 23.1488 43.9556 23.4599 43.5112 23.46H39.4224L37.2886 17.1426H28.3999L26.8442 21.8145C26.5776 22.5707 26.2222 23.4599 25.0669 23.46H21.689L28.978 2.68359C29.2447 1.97174 29.6005 0.81543 30.8003 0.81543H36.311L44.0005 22.7041ZM28.356 16.6533L28.5337 16.6982C29.1559 15.586 30.6224 13.584 33.2446 13.584H36.0894L32.8892 4.06348L28.356 16.6533Z" fill="#000000"/>
  <path d="M75.3778 0.81543L67.9556 21.8142C67.7778 22.3036 67.5111 23.4603 66.3556 23.4603H63.5111L59.2889 11.4038L55.5111 21.8142C55.3333 22.3036 55.0667 23.4603 53.9111 23.4603H50.8L43.1111 1.57174C42.9333 1.12685 43.1555 0.81543 43.6444 0.81543H47.7333L53.2889 17.7212L57.2889 5.70921L55.8222 1.57174C55.6444 1.12685 55.8667 0.81543 56.3555 0.81543H60.4889L65.6444 17.2318L70.1333 2.46152C70.3556 1.70521 70.7556 0.81543 71.8667 0.81543H75.3778V0.81543Z" fill="#000000"/>
  <path d="M96.2671 22.7041C96.4447 23.1488 96.2222 23.4599 95.7778 23.46H91.689L89.5552 17.1426H80.6665L79.1108 21.8145C78.8442 22.5707 78.4888 23.4599 77.3335 23.46H73.9556L81.2446 2.68359C81.5113 1.97174 81.8671 0.81543 83.0669 0.81543H88.5776L96.2671 22.7041ZM80.6226 16.6533L80.8003 16.6982C81.4225 15.586 82.889 13.584 85.5112 13.584H88.356L85.1558 4.06348L80.6226 16.6533Z" fill="#000000"/>
  <path d="M98.9331 2.99539C98.9331 2.10561 98.9331 0.81543 100.044 0.81543H103.6V18.2551V21.2358C103.6 22.1256 103.6 23.4158 102.489 23.4158H98.9331V2.99539Z" fill="#000000"/>
  <path d="M108.355 2.99539C108.355 2.10561 108.355 0.81543 109.467 0.81543H113.022V17.8992V21.2803C113.022 22.1701 113.022 23.4603 111.911 23.4603H108.355V2.99539Z" fill="#000000"/>
  <path d="M137.734 22.7041C137.911 23.1488 137.689 23.4599 137.245 23.46H133.156L131.022 17.1426H122.133L120.578 21.8145C120.311 22.5707 119.956 23.4599 118.8 23.46H115.422L122.711 2.68359C122.978 1.97174 123.334 0.81543 124.534 0.81543H130.044L137.734 22.7041ZM122.089 16.6533L122.267 16.6982C122.889 15.586 124.356 13.584 126.978 13.584H129.823L126.623 4.06348L122.089 16.6533Z" fill="#000000"/>
  <path d="M160 0.815485V21.2804C160 22.1702 160 23.4604 158.889 23.4604H156L144.933 8.46758V21.2359C144.933 22.1257 144.933 23.4159 143.733 23.4159H140.4V2.95095C140.4 2.06118 140.4 0.770996 141.511 0.770996H144.533L155.467 16.0307V2.95095C155.467 2.06118 155.289 0.770996 156.533 0.770996H160V0.815485Z" fill="#000000"/>
</svg>